<svg id="Layer_1" data-name="Layer 1" xmlns="http://www.w3.org/2000/svg" xmlns:xlink="http://www.w3.org/1999/xlink" viewBox="0 0 629.33 623.48"><defs><style>.cls-1{fill:#efefee;}.cls-2{fill:#5f6bb2;}.cls-3{fill:url(#linear-gradient);}.cls-4,.cls-5{fill:#fff;}.cls-4,.cls-7{opacity:0.95;}.cls-6{fill:#4db748;}.cls-8{fill:#848484;}.cls-9{fill:#149247;}.cls-10{fill:#3ab556;}.cls-11{fill:#edebea;}.cls-12{fill:#f9a01b;}.cls-13{fill:#f57f20;}.cls-14{fill:#ffcb29;}.cls-15{fill:#252f3e;}.cls-16{fill:#f8991d;}.cls-17{fill:#37474f;}.cls-18{fill:#5bbc6b;}.cls-19{fill:#5881c1;}.cls-20{fill:#fcb316;}.cls-21{fill:#25baa2;}.cls-22{fill:#0bbcd4;}.cls-23{fill:#e81f64;}.cls-24{fill:#378e43;}.cls-25{fill:#05897b;}.cls-26{fill:#be3a26;}.cls-27{fill:#4e342e;}</style><linearGradient id="linear-gradient" x1="290.39" y1="-671.39" x2="289.21" y2="-519.01" gradientTransform="translate(129.08 721.54)" gradientUnits="userSpaceOnUse"><stop offset="0.04" stop-color="#6d6e71"/><stop offset="0.22" stop-color="#4a5157" stop-opacity="0.9"/><stop offset="0.43" stop-color="#2b373f" stop-opacity="0.81"/><stop offset="0.64" stop-color="#14242e" stop-opacity="0.75"/><stop offset="0.83" stop-color="#071924" stop-opacity="0.71"/><stop offset="1" stop-color="#021520" stop-opacity="0.7"/></linearGradient></defs><rect class="cls-1" x="356.5" y="236.23" width="154.29" height="154.29" rx="23.72" transform="translate(97.32 -176.57) rotate(30.28)"/><path class="cls-2" d="M508.37,328.9c-1.57,10.54-6.06,21.2-12.81,30.88a76.48,76.48,0,0,1-23.19,21.79,78.86,78.86,0,0,1-32.34,11,73.53,73.53,0,0,1-25.59-1.66,10.41,10.41,0,0,1-2.58-.91,3.46,3.46,0,0,1-1.47-5c2.48-4,5.13-7.93,7.66-11.92,2-3.19,4.32-6.22,5.92-9.69a17.15,17.15,0,0,0,1.81-9.86c-.17-1.15,0-1.44,1.17-.92a65,65,0,0,0,13.22,4.62c9.28,1.82,17.58,0,24.91-6a45.33,45.33,0,0,0,14.43-19.83,24.18,24.18,0,0,0,1.21-11.84,3.48,3.48,0,0,1,1.33-3.62c4.74-4,7.18-9.42,8.71-15.31.34-1.31-.63-1.75-1.48-2.25-4.08-2.42-8.67-3-13.26-3.39-2.07-.19-4.17-.1-6.26-.12a2.71,2.71,0,0,1-1.93-1.15,69.76,69.76,0,0,0-29.34-19.09,5,5,0,0,1-3.16-3.12c-2.35-5.4-5.28-10.41-9.78-14.37-1.47-1.29-2.65-1.66-4.35-.18-4.58,4-8.19,8.52-9.7,14.49a1.46,1.46,0,0,1-1.08,1.25c-9.84,2.63-15.88,9.52-20.27,18.22-3.37,6.66-5.49,13.59-4.52,21.18.76,6,3.52,11,7.18,15.6a49,49,0,0,0,7.72,7.71c.32.26.83.48.78,1.05s-.68.54-1.06.68a17.17,17.17,0,0,0-6.81,4.42,2.65,2.65,0,0,1-3.09.86c-4.12-1.21-7.93-2.81-10.61-6.45a15.79,15.79,0,0,1-2.86-10c.05-3.84-.39-7.58-2.71-10.8a10,10,0,0,0-4.51-3.95,2.22,2.22,0,0,0-1.85,0c-.66.36-.49,1.16-.36,1.78.55,2.42,1.66,4.66,2.12,7.14a25.75,25.75,0,0,1-.18,9.51,17.34,17.34,0,0,0,5.33,16.67,29.8,29.8,0,0,0,9.37,5.89c1.13.48,1.21.87.66,1.74-2,3.15-4,6.34-6.08,9.42s-4.88,3-7.25,0a74.18,74.18,0,0,1-9.58-15.87,78.38,78.38,0,0,1-5.78-19.68,72.28,72.28,0,0,1-.52-20c2.31-19.19,10.36-35.6,24.54-48.86a78.83,78.83,0,0,1,17.49-12.12,76.05,76.05,0,0,1,62.34-3.44,77.33,77.33,0,0,1,48.46,85.6Z" transform="translate(-119.83 -0.68)"/><rect class="cls-3" x="288.43" y="50.18" width="260.91" height="151.97" rx="16.85" transform="translate(2.27 -195.91) rotate(30.52)"/><path class="cls-4" d="M343.75,38.64l8.24-14,1.22.71,2.49,17.83-.64-.38,7.15-12.14,1.46.86-8.24,14-1.22-.72L351.75,27l.64.38-7.16,12.13Z" transform="translate(-119.83 -0.68)"/><path class="cls-4" d="M364.08,50.76a6.76,6.76,0,0,1-2.47-2.39,5.72,5.72,0,0,1-.82-3A6.84,6.84,0,0,1,364,39.8,5.66,5.66,0,0,1,367,39a6.28,6.28,0,0,1,5.27,3.08,5.61,5.61,0,0,1,.7,2.94,6.67,6.67,0,0,1-1,3.17,2.39,2.39,0,0,1-.13.21,1.64,1.64,0,0,0-.14.22l-9.13-5.38.63-1.06,8.36,4.94-.81.09a4.75,4.75,0,0,0,.71-2.32,4.24,4.24,0,0,0-.51-2.17,4.3,4.3,0,0,0-1.64-1.64,4.4,4.4,0,0,0-2.23-.64,4,4,0,0,0-2.16.61,5,5,0,0,0-1.7,1.77l-.13.22a4.82,4.82,0,0,0-.71,2.42,4.38,4.38,0,0,0,.64,2.29,5.72,5.72,0,0,0,3.86,2.5,4.33,4.33,0,0,0,2-.2l.25,1.39a5.26,5.26,0,0,1-2.5.25A7,7,0,0,1,364.08,50.76Z" transform="translate(-119.83 -0.68)"/><path class="cls-4" d="M375,57.19a3.22,3.22,0,0,1-1.28-4.86l5.8-9.85,1.42.84-5.75,9.76a2.36,2.36,0,0,0-.37,1.7,2.08,2.08,0,0,0,1.06,1.29,2.67,2.67,0,0,0,1.87.38l-.1,1.31a3,3,0,0,1-1.34,0A4.83,4.83,0,0,1,375,57.19Zm.59-12.32.69-1.18,6.49,3.83-.69,1.18Z" transform="translate(-119.83 -0.68)"/><path class="cls-4" d="M389.16,65.57a10.14,10.14,0,0,1-2.68-2.27A6.59,6.59,0,0,1,385,60.69l1.25-.79a6.73,6.73,0,0,0,1.27,2.37,8.21,8.21,0,0,0,2.34,2,6.92,6.92,0,0,0,2.34.94,3.06,3.06,0,0,0,1.74-.17,2.44,2.44,0,0,0,1.12-1,2.15,2.15,0,0,0,.31-1.6,3.85,3.85,0,0,0-.76-1.51,16.85,16.85,0,0,0-1.38-1.5c-.53-.5-1-1-1.56-1.55a9.41,9.41,0,0,1-1.29-1.66,4,4,0,0,1-.59-1.84,3.66,3.66,0,0,1,.6-2.08,4.12,4.12,0,0,1,1.67-1.59,4.53,4.53,0,0,1,2.51-.4,8.14,8.14,0,0,1,3.23,1.19A9.7,9.7,0,0,1,400,53.24a7.82,7.82,0,0,1,1.46,2.08l-1.19.89a7.92,7.92,0,0,0-1.39-2,8.6,8.6,0,0,0-1.78-1.42,6.36,6.36,0,0,0-2.28-.89,3.05,3.05,0,0,0-1.74.2,2.51,2.51,0,0,0-1.15,1.06,2.12,2.12,0,0,0-.31,1.59,3.71,3.71,0,0,0,.78,1.51,17.1,17.1,0,0,0,1.39,1.49c.53.51,1,1,1.55,1.56A9.83,9.83,0,0,1,396.6,61a4,4,0,0,1,.6,1.81,3.65,3.65,0,0,1-.58,2.06A4,4,0,0,1,395,66.38a4.51,4.51,0,0,1-2.53.39A8.13,8.13,0,0,1,389.16,65.57Z" transform="translate(-119.83 -0.68)"/><path class="cls-4" d="M400.25,72.08a5.71,5.71,0,0,1-1.81-1.6,3.54,3.54,0,0,1-.7-1.86,3.5,3.5,0,0,1,1.75-3.11,3.17,3.17,0,0,1,1.91-.33,6.8,6.8,0,0,1,2.63,1l3.61,2.13L407,69.37l-3.58-2.11a3.66,3.66,0,0,0-2.42-.7,2.11,2.11,0,0,0-1.53,2.84,3.66,3.66,0,0,0,1.64,1.69,4.37,4.37,0,0,0,2.39.67,3.57,3.57,0,0,0,2.2-.84l-.25,1.17a4,4,0,0,1-2.37.84A5.38,5.38,0,0,1,400.25,72.08Zm3.67,2,1.37-2.32.16-.41,2.29-3.87a3.17,3.17,0,0,0,.46-2.5,3.63,3.63,0,0,0-1.8-2,6.32,6.32,0,0,0-2.14-.8,5.66,5.66,0,0,0-2.09,0V60.72a6.59,6.59,0,0,1,2.53.08,9.13,9.13,0,0,1,2.58,1,5.31,5.31,0,0,1,2.55,2.86,4.58,4.58,0,0,1-.7,3.72l-3.84,6.51Z" transform="translate(-119.83 -0.68)"/><path class="cls-4" d="M409.13,77.18l8.74-14.81,1.42.83L410.55,78Z" transform="translate(-119.83 -0.68)"/><path class="cls-4" d="M418.9,83.07a6.74,6.74,0,0,1-2.47-2.38,5.86,5.86,0,0,1-.82-3,6.34,6.34,0,0,1,.93-3.18,6.44,6.44,0,0,1,2.3-2.36,5.75,5.75,0,0,1,2.94-.8,5.81,5.81,0,0,1,3,.86,6,6,0,0,1,2.24,2.21,5.61,5.61,0,0,1,.7,2.94,6.7,6.7,0,0,1-1,3.18l-.13.2-.15.22-9.12-5.37.62-1.06,8.37,4.93-.81.09a4.75,4.75,0,0,0,.71-2.32,4.27,4.27,0,0,0-.51-2.17,4.37,4.37,0,0,0-1.64-1.64,4.5,4.5,0,0,0-2.23-.64,4.06,4.06,0,0,0-2.16.61,5,5,0,0,0-1.7,1.77l-.13.22a4.85,4.85,0,0,0-.71,2.42,4.33,4.33,0,0,0,.64,2.29,5.37,5.37,0,0,0,1.87,1.79,5.54,5.54,0,0,0,2,.71,4.33,4.33,0,0,0,2-.2l.25,1.39a5.14,5.14,0,0,1-2.5.25A7,7,0,0,1,418.9,83.07Z" transform="translate(-119.83 -0.68)"/><path class="cls-5" d="M330.57,75.13a11.8,11.8,0,0,1-3-2.57,7.46,7.46,0,0,1-1.62-3l1.41-.91a7.84,7.84,0,0,0,1.44,2.7,9.47,9.47,0,0,0,2.65,2.3,7.65,7.65,0,0,0,2.65,1.06,3.4,3.4,0,0,0,2-.19,2.81,2.81,0,0,0,1.27-1.14,2.47,2.47,0,0,0,.35-1.81,4.48,4.48,0,0,0-.87-1.71,17,17,0,0,0-1.56-1.69c-.59-.58-1.18-1.16-1.76-1.76A10.55,10.55,0,0,1,332,64.58a4.7,4.7,0,0,1-.66-2.08,4.11,4.11,0,0,1,.68-2.36,4.53,4.53,0,0,1,1.89-1.79,4.94,4.94,0,0,1,2.84-.46,9.14,9.14,0,0,1,3.65,1.35,10.93,10.93,0,0,1,2.43,1.93,8.81,8.81,0,0,1,1.65,2.36l-1.35,1a8.84,8.84,0,0,0-1.57-2.27,9.34,9.34,0,0,0-2-1.61,7.05,7.05,0,0,0-2.57-1,3.43,3.43,0,0,0-2,.22,2.92,2.92,0,0,0-1.3,1.19,2.47,2.47,0,0,0-.35,1.81,4.21,4.21,0,0,0,.89,1.71,21.57,21.57,0,0,0,1.57,1.69c.6.57,1.18,1.16,1.75,1.76A11.34,11.34,0,0,1,339,69.9a4.53,4.53,0,0,1,.68,2.06,4.06,4.06,0,0,1-.66,2.33,4.46,4.46,0,0,1-1.89,1.76,5.09,5.09,0,0,1-2.86.44A9.38,9.38,0,0,1,330.57,75.13Zm-2,2.29L341.1,56.18l1.13.67L329.71,78.09Z" transform="translate(-119.83 -0.68)"/><path class="cls-5" d="M345.19,83.74a7.34,7.34,0,0,1-3-3,6.73,6.73,0,0,1-.6-4,12.75,12.75,0,0,1,1.77-4.7,11.65,11.65,0,0,1,3.57-4,7.32,7.32,0,0,1,4.16-1.24,8.7,8.7,0,0,1,4.32,1.29,11.6,11.6,0,0,1,1.92,1.41,6.39,6.39,0,0,1,1.33,1.66l-1.43.93a4.67,4.67,0,0,0-1.06-1.4,9.39,9.39,0,0,0-1.57-1.16,6.23,6.23,0,0,0-5-.78q-2.49.73-4.39,4c-.2.33-.42.76-.67,1.27a8.87,8.87,0,0,0-.6,1.61l-.31-.76a5,5,0,0,1,2.15-1.43,5.28,5.28,0,0,1,2.54-.19,7.32,7.32,0,0,1,2.63,1,7.12,7.12,0,0,1,2.43,2.23,5.3,5.3,0,0,1,.91,2.75,5.48,5.48,0,0,1-5.95,5.62A7.3,7.3,0,0,1,345.19,83.74Zm.75-1.41a5.43,5.43,0,0,0,2.24.76,3.86,3.86,0,0,0,2.08-.39,4,4,0,0,0,1.57-1.53,3.64,3.64,0,0,0,.39-3.12,5,5,0,0,0-2.36-2.64,5.51,5.51,0,0,0-2.39-.8,4.29,4.29,0,0,0-2.15.39,3.7,3.7,0,0,0-1.57,1.47,3.66,3.66,0,0,0-.49,1.92,4.06,4.06,0,0,0,.67,2.1A5.75,5.75,0,0,0,345.94,82.33Z" transform="translate(-119.83 -0.68)"/><path class="cls-5" d="M357.46,91a11,11,0,0,1-2.9-2.46A7.37,7.37,0,0,1,353,85.6l1.55-.82a6.55,6.55,0,0,0,1.27,2.51,8.58,8.58,0,0,0,2.51,2.18,5.38,5.38,0,0,0,3.59.92,3.43,3.43,0,0,0,2.43-1.72,3.29,3.29,0,0,0-.42-4.15A11.58,11.58,0,0,0,361,82.25l-3.36-2,5.49-7.45,8.65,5.1-.85,1.45-8-4.72,1.3-.29-4.62,6.23-.35-1.31,3,1.75a12.06,12.06,0,0,1,3.49,2.85,4.84,4.84,0,0,1,1.13,2.87,5.39,5.39,0,0,1-.8,2.83A5.68,5.68,0,0,1,364,91.63a5.14,5.14,0,0,1-2.92.61A8.45,8.45,0,0,1,357.46,91Z" transform="translate(-119.83 -0.68)"/><path class="cls-5" d="M363.48,98.79l3.46-3.59-.39,1.07a1.35,1.35,0,0,1-.67-.85,1.39,1.39,0,0,1,.17-1.09,1.37,1.37,0,0,1,1.92-.51,1.28,1.28,0,0,1,.63.86,1.39,1.39,0,0,1-.18,1c-.07.12-.15.24-.23.35s-.2.23-.33.36l-.5.43-2.79,2.56Z" transform="translate(-119.83 -0.68)"/><path class="cls-5" d="M374.77,101.18a11.06,11.06,0,0,1-2.91-2.46,7.62,7.62,0,0,1-1.58-2.93l1.55-.82a6.83,6.83,0,0,0,1.29,2.53,8.71,8.71,0,0,0,2.53,2.19,5.44,5.44,0,0,0,3.53.92,3.25,3.25,0,0,0,2.4-1.69,3.33,3.33,0,0,0,.34-2.91,5.85,5.85,0,0,0-2.74-2.77l-1.13-.66.7-1.2,8.5-3.25-.15.77-8.81-5.2.85-1.44,10.17,6-.68,1.15-8.49,3.25-.49-1,.61.36a7.25,7.25,0,0,1,3.52,3.78,4.87,4.87,0,0,1-.51,4.09,5.34,5.34,0,0,1-2,2,5.05,5.05,0,0,1-2.9.55A8.62,8.62,0,0,1,374.77,101.18Z" transform="translate(-119.83 -0.68)"/><path class="cls-5" d="M385.06,101.46l.69-1.18,14.56-5.54,1.81,1.06-14.5,5.59-.72-.79,12.73,7.5-.86,1.44Zm6.47,9.42,2.45-4.16.9-1.42,2.16-3.66,1.58.93-5.46,9.27Z" transform="translate(-119.83 -0.68)"/><path class="cls-5" d="M404,118.43a6.6,6.6,0,0,1-2.69-2.88,7.4,7.4,0,0,1-.61-4.07,13.88,13.88,0,0,1,5.1-8.66,7.44,7.44,0,0,1,3.86-1.44,7,7,0,0,1,6.51,3.84,7.51,7.51,0,0,1,.62,4.08,12,12,0,0,1-1.72,4.82,12.14,12.14,0,0,1-3.38,3.84,7.55,7.55,0,0,1-3.87,1.43A6.59,6.59,0,0,1,404,118.43Zm.88-1.49a4.63,4.63,0,0,0,2.88.68,5.71,5.71,0,0,0,2.94-1.25,11.41,11.41,0,0,0,2.7-3.24A11.26,11.26,0,0,0,415,109.2a5.77,5.77,0,0,0-.32-3.17,4.71,4.71,0,0,0-2-2.2,4.76,4.76,0,0,0-2.86-.67,5.7,5.7,0,0,0-3,1.25,12.93,12.93,0,0,0-4.22,7.16,5.58,5.58,0,0,0,.35,3.19A4.67,4.67,0,0,0,404.92,116.94Z" transform="translate(-119.83 -0.68)"/><path class="cls-5" d="M413.93,124.23a1.33,1.33,0,0,1-.64-.86,1.45,1.45,0,0,1,.17-1.09,1.41,1.41,0,0,1,2.57.33,1.36,1.36,0,0,1-.17,1.08,1.47,1.47,0,0,1-.87.68A1.31,1.31,0,0,1,413.93,124.23Z" transform="translate(-119.83 -0.68)"/><path class="cls-5" d="M422.48,129.3a11,11,0,0,1-2.91-2.46,7.43,7.43,0,0,1-1.57-2.92l1.55-.82a6.69,6.69,0,0,0,1.28,2.52,8.82,8.82,0,0,0,2.5,2.18,5.37,5.37,0,0,0,3.59.91,3.4,3.4,0,0,0,2.43-1.72,3.26,3.26,0,0,0-.42-4.15,11.32,11.32,0,0,0-2.92-2.27l-3.37-2,5.49-7.46,8.66,5.11-.86,1.44-8-4.71,1.31-.3-4.62,6.23-.36-1.31,3,1.75a12,12,0,0,1,3.5,2.85,4.85,4.85,0,0,1,1.12,2.87,5.28,5.28,0,0,1-.8,2.83A5.5,5.5,0,0,1,429,130a5.09,5.09,0,0,1-2.92.61A8.4,8.4,0,0,1,422.48,129.3Z" transform="translate(-119.83 -0.68)"/><path class="cls-5" d="M435.27,136.84a11,11,0,0,1-2.91-2.46,7.27,7.27,0,0,1-1.56-2.92l1.55-.82a6.51,6.51,0,0,0,1.27,2.52,8.73,8.73,0,0,0,2.51,2.18,5.34,5.34,0,0,0,3.58.91,3.38,3.38,0,0,0,2.43-1.72,3.26,3.26,0,0,0-.42-4.15,11.32,11.32,0,0,0-2.92-2.27l-3.37-2,5.49-7.46,8.66,5.11-.85,1.44-8-4.71,1.31-.3-4.62,6.23-.36-1.31,3,1.75a12,12,0,0,1,3.5,2.85,4.85,4.85,0,0,1,1.12,2.87,5.28,5.28,0,0,1-.8,2.83,5.5,5.5,0,0,1-2.06,2.06,5.07,5.07,0,0,1-2.92.61A8.4,8.4,0,0,1,435.27,136.84Z" transform="translate(-119.83 -0.68)"/><path class="cls-6" d="M321.29,117.29l.8-1.36L339,109.5l2.09,1.24-16.8,6.47-.83-.92L338.17,125l-1,1.68Zm7.5,10.91,2.84-4.82,1-1.64,2.5-4.24,1.83,1.08-6.32,10.73Z" transform="translate(-119.83 -0.68)"/><path class="cls-6" d="M337.41,133.46a1.54,1.54,0,0,1-.74-1,1.65,1.65,0,0,1,.2-1.26,1.56,1.56,0,0,1,1-.78,1.64,1.64,0,0,1,2,1.16,1.55,1.55,0,0,1-.2,1.26,1.62,1.62,0,0,1-1,.78A1.55,1.55,0,0,1,337.41,133.46Z" transform="translate(-119.83 -0.68)"/><path class="cls-6" d="M341.28,135.57l.79-1.34,12-3a14.38,14.38,0,0,0,2.63-.87,5.57,5.57,0,0,0,1.56-1,5.82,5.82,0,0,0,.94-1.17,3.63,3.63,0,0,0,.4-3.16,5.7,5.7,0,0,0-2.67-2.8,8.75,8.75,0,0,0-3.16-1.19,6.23,6.23,0,0,0-3.05.28l-.65-1.94a8.14,8.14,0,0,1,3.89-.31,11.42,11.42,0,0,1,4.14,1.52,9.4,9.4,0,0,1,2.88,2.49,5.44,5.44,0,0,1,1.09,3,5.35,5.35,0,0,1-.81,3.08,7.38,7.38,0,0,1-1.28,1.61,7.57,7.57,0,0,1-2,1.29,16.66,16.66,0,0,1-3.15,1.06l-11,2.74-.09-1,11.37,6.7-1,1.68Z" transform="translate(-119.83 -0.68)"/><path class="cls-6" d="M359,146,382.28,135l1.54.91-23.32,11Zm6.4-7.69a4.41,4.41,0,0,1-1.78-1.88,4.62,4.62,0,0,1-.43-2.6,8,8,0,0,1,3.09-5.23,4.63,4.63,0,0,1,2.48-.89,4.76,4.76,0,0,1,4.33,2.56,4.81,4.81,0,0,1,.44,2.58,7.95,7.95,0,0,1-3.1,5.25,4.77,4.77,0,0,1-2.48.89A4.5,4.5,0,0,1,365.36,138.29Zm.72-1.16a2.87,2.87,0,0,0,2.65.2,6.27,6.27,0,0,0,3.29-5.58,3,3,0,0,0-4.12-2.43,5.29,5.29,0,0,0-2.41,2.35,5.24,5.24,0,0,0-.88,3.23A2.86,2.86,0,0,0,366.08,137.13Zm5.45,16.44a4.43,4.43,0,0,1-1.79-1.88,4.82,4.82,0,0,1-.44-2.61,7.31,7.31,0,0,1,1-2.92,7.1,7.1,0,0,1,2.07-2.31,4.67,4.67,0,0,1,2.49-.88,4.81,4.81,0,0,1,4.34,2.55,4.67,4.67,0,0,1,.41,2.59,8,8,0,0,1-3.09,5.24,4.59,4.59,0,0,1-2.46.89A4.41,4.41,0,0,1,371.53,153.57Zm.69-1.18a2.87,2.87,0,0,0,2.65.21,6.3,6.3,0,0,0,3.29-5.58,3,3,0,0,0-4.11-2.42,6.27,6.27,0,0,0-3.29,5.57A2.86,2.86,0,0,0,372.22,152.39Z" transform="translate(-119.83 -0.68)"/><path class="cls-6" d="M319.25,97.3l.07.24c1,3.91,2,7.83,3,11.74a1.85,1.85,0,0,1-3.5,1.22,3.36,3.36,0,0,1-.14-.45l-1.35-5.22a1.3,1.3,0,0,1,0-.34h-.12c-.06.09-.13.18-.19.28l-6.2,10.51a1.91,1.91,0,0,1-2.05,1,1.87,1.87,0,0,1-1.25-2.77l6.26-10.62.22-.37c-.18,0-.29,0-.39.06l-5.44,1.4a1.85,1.85,0,0,1-1.16-3.52l.38-.12,11.52-3Z" transform="translate(-119.83 -0.68)"/><rect class="cls-5" x="526.44" y="172.03" width="203.91" height="154.22" rx="16.85" transform="matrix(0.86, 0.51, -0.51, 0.86, 93.73, -285.27)"/><path class="cls-7" d="M607.72,204.14l-1.25-.75,7-11.89,8.15,4.81L621,197.4l-6.9-4.07Zm3.48-6.22,6.29,3.71-.64,1.08-6.29-3.7Z" transform="translate(-119.83 -0.68)"/><path class="cls-7" d="M620.6,211.84a5.14,5.14,0,0,1-1.73-1.59,3.52,3.52,0,0,1-.57-2.05,5.06,5.06,0,0,1,.79-2.4l3-5.19,1.21.71-3,5.05a3.43,3.43,0,0,0-.56,2.57,3.12,3.12,0,0,0,1.55,1.89,4,4,0,0,0,1.85.57,2.93,2.93,0,0,0,1.71-.49,4.58,4.58,0,0,0,1.4-1.54l2.75-4.67,1.21.71L625,214.33l-1.15-.68,1.44-2.45-.08.56a3.84,3.84,0,0,1-2.22.76A4.58,4.58,0,0,1,620.6,211.84Z" transform="translate(-119.83 -0.68)"/><path class="cls-7" d="M628.38,216.31l7.44-12.6,1.2.71L629.59,217Z" transform="translate(-119.83 -0.68)"/><path class="cls-7" d="M633.16,219.13l5.92-10a3.07,3.07,0,0,1,1.83-1.51,3,3,0,0,1,2.43.45,4.25,4.25,0,0,1,.91.72,2.28,2.28,0,0,1,.55.89l-.94.66a2.14,2.14,0,0,0-.4-.68,2.56,2.56,0,0,0-.67-.54,1.81,1.81,0,0,0-1.42-.27,2,2,0,0,0-1.15,1l-.8,1.36-.3.58-4.75,8.07Zm3.07-8.86.59-1,5.52,3.25-.59,1Zm2.49,12.13,5.25-8.92,1.21.71-5.26,8.92Zm7-10.53a1,1,0,0,1-.37-1.38A1,1,0,0,1,646,210a1.1,1.1,0,0,1,1.26.74.89.89,0,0,1-.1.74,1,1,0,0,1-.61.48A.94.94,0,0,1,645.75,211.87Z" transform="translate(-119.83 -0.68)"/><path class="cls-7" d="M643.3,225.11l7.43-12.61,1.21.71-7.43,12.61Z" transform="translate(-119.83 -0.68)"/><path class="cls-7" d="M651.61,230.12a5.7,5.7,0,0,1-2.1-2,5,5,0,0,1-.7-2.58,5.44,5.44,0,0,1,.8-2.71,5.54,5.54,0,0,1,1.95-2,4.93,4.93,0,0,1,2.51-.68,5.34,5.34,0,0,1,4.48,2.62,4.74,4.74,0,0,1,.59,2.5,5.69,5.69,0,0,1-.83,2.7,1.77,1.77,0,0,1-.12.17l-.12.19-7.77-4.57.54-.9L658,227l-.69.08a4.1,4.1,0,0,0,.6-2,3.5,3.5,0,0,0-1.83-3.24,3.72,3.72,0,0,0-1.9-.55,3.44,3.44,0,0,0-1.84.52,4.28,4.28,0,0,0-1.44,1.51l-.11.18a4.15,4.15,0,0,0-.61,2.06,3.69,3.69,0,0,0,.55,2,4.47,4.47,0,0,0,1.59,1.52,4.72,4.72,0,0,0,1.69.61,3.65,3.65,0,0,0,1.73-.17l.22,1.18a4.45,4.45,0,0,1-2.12.21A5.84,5.84,0,0,1,651.61,230.12Z" transform="translate(-119.83 -0.68)"/><path class="cls-7" d="M661.64,236a5.24,5.24,0,0,1-1.95-1.93,4.88,4.88,0,0,1-.64-2.54,6,6,0,0,1,2.8-4.75,4.8,4.8,0,0,1,2.53-.65,5.37,5.37,0,0,1,2.62.78,4.85,4.85,0,0,1,1.78,1.76,4.56,4.56,0,0,1,.58,2.41,5.87,5.87,0,0,1-.91,2.8,6,6,0,0,1-2,2.14,4.4,4.4,0,0,1-2.39.69A4.8,4.8,0,0,1,661.64,236Zm.71-1a4,4,0,0,0,2,.57,3.55,3.55,0,0,0,1.91-.52,4.74,4.74,0,0,0,2.16-3.66,3.66,3.66,0,0,0-.48-1.92,4,4,0,0,0-1.45-1.44,4,4,0,0,0-1.94-.56,3.7,3.7,0,0,0-1.9.52,4.35,4.35,0,0,0-1.53,1.57,4.29,4.29,0,0,0-.63,2.09,3.6,3.6,0,0,0,.47,1.92A3.75,3.75,0,0,0,662.35,235Zm2.79,3,1.58-2.69,1.18-1.73.89-1.9,3.73-6.32,1.2.71-7.43,12.61Z" transform="translate(-119.83 -0.68)"/><path class="cls-8" d="M566.8,222.12l5.31-9,3.67,2.17a6.14,6.14,0,0,1,2.19,2.06,4.94,4.94,0,0,1,.76,2.59,5.3,5.3,0,0,1-.78,2.7,5.11,5.11,0,0,1-2,2,4.91,4.91,0,0,1-2.63.6,6.2,6.2,0,0,1-2.86-.92Zm1.44-.27,2.66,1.57a5,5,0,0,0,2.36.76,4,4,0,0,0,2.13-.49,4.16,4.16,0,0,0,1.62-1.63,4.28,4.28,0,0,0,.64-2.2,3.91,3.91,0,0,0-.61-2.1,5,5,0,0,0-1.8-1.7l-2.66-1.57Z" transform="translate(-119.83 -0.68)"/><path class="cls-8" d="M580.07,230a4.44,4.44,0,0,1-1.59-1.54,3.77,3.77,0,0,1-.53-2,4.14,4.14,0,0,1,.6-2.05A4.24,4.24,0,0,1,580,223a3.67,3.67,0,0,1,1.9-.52,3.82,3.82,0,0,1,2,.56,3.93,3.93,0,0,1,1.44,1.42,3.63,3.63,0,0,1,.45,1.9,4.38,4.38,0,0,1-.64,2.05l-.08.13-.1.14-5.88-3.47.4-.68,5.4,3.18-.52.06a3,3,0,0,0,.45-1.49,2.59,2.59,0,0,0-.33-1.4,2.7,2.7,0,0,0-1.06-1.06,2.81,2.81,0,0,0-1.44-.41,2.51,2.51,0,0,0-1.39.39,3.23,3.23,0,0,0-1.09,1.14l-.08.14a3,3,0,0,0-.46,1.56,2.69,2.69,0,0,0,.41,1.48,3.35,3.35,0,0,0,1.21,1.15,3.4,3.4,0,0,0,1.28.46,2.67,2.67,0,0,0,1.31-.13l.17.9a3.37,3.37,0,0,1-1.61.16A4.42,4.42,0,0,1,580.07,230Z" transform="translate(-119.83 -0.68)"/><path class="cls-8" d="M585,232.85l5.63-9.55.92.54-5.63,9.55Z" transform="translate(-119.83 -0.68)"/><path class="cls-8" d="M588.48,234.9l4-6.76.92.53-4,6.76Zm5.32-8a.83.83,0,0,1-.36-.48.78.78,0,0,1,.08-.58.72.72,0,0,1,.46-.34.73.73,0,0,1,.59.1.77.77,0,0,1,.37.46.66.66,0,0,1-.07.56.79.79,0,0,1-.47.37A.8.8,0,0,1,593.8,226.92Z" transform="translate(-119.83 -0.68)"/><path class="cls-8" d="M593.68,238l1-8.53,1,.57-1,7.89-.45-.27,6.49-4.62.9.53-7,5Z" transform="translate(-119.83 -0.68)"/><path class="cls-8" d="M601.75,242.81a4.44,4.44,0,0,1-1.59-1.54,3.68,3.68,0,0,1-.53-2,4.41,4.41,0,0,1,2.08-3.57,3.65,3.65,0,0,1,1.9-.52,3.8,3.8,0,0,1,2,.55A3.84,3.84,0,0,1,607,237.2a3.55,3.55,0,0,1,.46,1.9,4.38,4.38,0,0,1-.64,2.05l-.08.13a.71.71,0,0,0-.1.14L600.76,238l.4-.68,5.4,3.18-.52.06a3.14,3.14,0,0,0,.45-1.49,2.57,2.57,0,0,0-.33-1.4,2.7,2.7,0,0,0-1.06-1.06,2.92,2.92,0,0,0-1.44-.42,2.6,2.6,0,0,0-1.39.4,3.15,3.15,0,0,0-1.09,1.14l-.08.14a3,3,0,0,0-.46,1.56,2.69,2.69,0,0,0,.41,1.48,3.4,3.4,0,0,0,1.2,1.15,3.51,3.51,0,0,0,1.29.46,2.79,2.79,0,0,0,1.31-.13l.17.9a3.37,3.37,0,0,1-1.61.16A4.6,4.6,0,0,1,601.75,242.81Z" transform="translate(-119.83 -0.68)"/><path class="cls-8" d="M606.69,245.63l4-6.76.87.52-1.08,1.84.1-.38a2.6,2.6,0,0,1,1.64-.61,3.61,3.61,0,0,1,1.9.57l-.52.89-.1-.07-.1-.06a2.51,2.51,0,0,0-2.06-.34,3,3,0,0,0-1.69,1.49l-2,3.45Z" transform="translate(-119.83 -0.68)"/><path class="cls-8" d="M610.4,251.27a3.23,3.23,0,0,1-.82-.69,2.44,2.44,0,0,1-.47-.9l.83-.43a2.45,2.45,0,0,0,.34.71,1.79,1.79,0,0,0,.59.53,1.42,1.42,0,0,0,.93.21,2.66,2.66,0,0,0,1.14-.52l1-.73.19-.08,6.48-4.63.9.53-7.85,5.57a4.29,4.29,0,0,1-1.24.68,2.34,2.34,0,0,1-1.06.11A2.72,2.72,0,0,1,610.4,251.27Zm3.2-1.31,1-8.79.95.56-.9,7.83Z" transform="translate(-119.83 -0.68)"/><path class="cls-8" d="M622.4,254.89l5.31-9,.79.46,0,9.46-.41-.24,8.22-4.63.79.46-5.31,9-.92-.54,4.47-7.58.22.12L628,256.64l-.45-.27V247.7l.24.15-4.47,7.58Z" transform="translate(-119.83 -0.68)"/><path class="cls-8" d="M637.33,263.78a4.44,4.44,0,0,1-1.59-1.54,3.77,3.77,0,0,1-.53-2,4.17,4.17,0,0,1,.6-2,4.32,4.32,0,0,1,1.48-1.52,3.77,3.77,0,0,1,1.9-.52,3.82,3.82,0,0,1,2,.56,3.87,3.87,0,0,1,1.44,1.43,3.6,3.6,0,0,1,.45,1.89,4.27,4.27,0,0,1-.64,2.05l-.08.13c0,.05-.06.09-.09.15l-5.89-3.47.4-.68,5.4,3.17-.52.06a3,3,0,0,0,.45-1.49,2.59,2.59,0,0,0-.33-1.4,2.74,2.74,0,0,0-1-1.06,2.87,2.87,0,0,0-1.44-.41,2.69,2.69,0,0,0-1.4.39,3.36,3.36,0,0,0-1.09,1.15l-.08.14a3.06,3.06,0,0,0-.46,1.56,2.77,2.77,0,0,0,.41,1.47,3.35,3.35,0,0,0,1.21,1.15,3.24,3.24,0,0,0,1.28.46,2.66,2.66,0,0,0,1.31-.12l.17.89a3.24,3.24,0,0,1-1.61.16A4.26,4.26,0,0,1,637.33,263.78Z" transform="translate(-119.83 -0.68)"/><path class="cls-8" d="M644.38,267.93a2.08,2.08,0,0,1-.83-3.14l3.74-6.34.92.53-3.71,6.3a1.48,1.48,0,0,0-.24,1.09,1.34,1.34,0,0,0,.68.84,1.78,1.78,0,0,0,1.21.24l-.07.85a1.94,1.94,0,0,1-.86,0A2.8,2.8,0,0,1,644.38,267.93Zm.38-7.94.44-.76,4.19,2.46-.45.76Z" transform="translate(-119.83 -0.68)"/><path class="cls-8" d="M655,264.9a3.7,3.7,0,0,1,1.27,1.17,2.59,2.59,0,0,1,.41,1.53,3.94,3.94,0,0,1-.6,1.83l-2.32,3.93-.91-.54,2.26-3.84a2.58,2.58,0,0,0,.42-1.93,2.35,2.35,0,0,0-1.18-1.43,3.1,3.1,0,0,0-1.42-.45,2.36,2.36,0,0,0-1.32.35,3.23,3.23,0,0,0-1.07,1.15l-2.09,3.56-.92-.54,5.63-9.56.92.54-2.74,4.65,0-.45a2.8,2.8,0,0,1,1.71-.55A3.71,3.71,0,0,1,655,264.9Z" transform="translate(-119.83 -0.68)"/><path class="cls-8" d="M658.92,276.5a4,4,0,0,1-1.5-1.48,3.78,3.78,0,0,1-.5-1.95,4.08,4.08,0,0,1,.6-2,4,4,0,0,1,1.5-1.52A3.69,3.69,0,0,1,661,269a4.39,4.39,0,0,1,3.54,2.09A3.67,3.67,0,0,1,665,273a4,4,0,0,1-.6,2,4.13,4.13,0,0,1-1.5,1.52,3.69,3.69,0,0,1-1.95.5A4.09,4.09,0,0,1,658.92,276.5Zm.48-.81a2.91,2.91,0,0,0,1.49.44,2.66,2.66,0,0,0,1.44-.4,3.21,3.21,0,0,0,1.15-1.19A3.26,3.26,0,0,0,664,273a2.78,2.78,0,0,0-.35-1.45A3.13,3.13,0,0,0,661,270a2.86,2.86,0,0,0-1.44.39,3.17,3.17,0,0,0-1.15,1.2,3.31,3.31,0,0,0-.49,1.58,2.86,2.86,0,0,0,.35,1.45A2.9,2.9,0,0,0,659.4,275.69Z" transform="translate(-119.83 -0.68)"/><path class="cls-8" d="M666.93,281.22a3.86,3.86,0,0,1-1.47-1.45,3.72,3.72,0,0,1-.49-1.93,4.56,4.56,0,0,1,2.12-3.6,3.59,3.59,0,0,1,1.91-.49,4,4,0,0,1,2,.59,3.67,3.67,0,0,1,1.35,1.33,3.43,3.43,0,0,1,.44,1.83,4.55,4.55,0,0,1-.69,2.12,4.49,4.49,0,0,1-1.51,1.62,3.27,3.27,0,0,1-1.81.52A3.53,3.53,0,0,1,666.93,281.22Zm.54-.77a3,3,0,0,0,1.49.44,2.81,2.81,0,0,0,1.45-.4,3.35,3.35,0,0,0,1.14-1.19,3.26,3.26,0,0,0,.49-1.58,2.64,2.64,0,0,0-.36-1.46,3,3,0,0,0-1.1-1.09,2.82,2.82,0,0,0-2.91,0,3.14,3.14,0,0,0-1.15,1.19,3.22,3.22,0,0,0-.48,1.58,2.7,2.7,0,0,0,.35,1.46A2.94,2.94,0,0,0,667.47,280.45Zm2.11,2.25,1.2-2,.89-1.31.68-1.44,2.82-4.79.92.54-5.63,9.55Z" transform="translate(-119.83 -0.68)"/><path class="cls-6" d="M548.73,256.05l5.2-8.82.93.55-5.2,8.82Zm2.1-1.72.63-1.15,8.58-2.35,1.07.64-6.3,1.78-.86.26Zm4.23,5.46-1.22-6.63,1-.31,1.29,7.59Z" transform="translate(-119.83 -0.68)"/><path class="cls-6" d="M559.32,262.38a3.66,3.66,0,0,1-1.14-1,2.2,2.2,0,0,1-.44-1.17A2.09,2.09,0,0,1,558,259a2.19,2.19,0,0,1,.8-.8,2,2,0,0,1,1.21-.2,4.33,4.33,0,0,1,1.66.63L564,260l-.4.67-2.25-1.33a2.28,2.28,0,0,0-1.53-.44,1.29,1.29,0,0,0-.87.62,1.25,1.25,0,0,0-.09,1.17,2.27,2.27,0,0,0,1,1.07,2.88,2.88,0,0,0,1.51.42,2.34,2.34,0,0,0,1.39-.53l-.17.73a2.38,2.38,0,0,1-1.49.53A3.34,3.34,0,0,1,559.32,262.38Zm2.32,1.28.86-1.46.11-.26,1.44-2.45a2,2,0,0,0,.29-1.57,2.27,2.27,0,0,0-1.14-1.28,4,4,0,0,0-1.35-.51,3.61,3.61,0,0,0-1.31,0v-.91a4.16,4.16,0,0,1,1.6.06,5.32,5.32,0,0,1,1.62.64,3.31,3.31,0,0,1,1.61,1.8,2.88,2.88,0,0,1-.44,2.35l-2.42,4.11Z" transform="translate(-119.83 -0.68)"/><path class="cls-6" d="M572.24,260.91a3.64,3.64,0,0,1,1.24,1.15,2.56,2.56,0,0,1,.4,1.5,3.78,3.78,0,0,1-.59,1.79L571,269.19l-.9-.52,2.21-3.76a2.53,2.53,0,0,0,.41-1.89,2.28,2.28,0,0,0-1.15-1.4,2.93,2.93,0,0,0-1.39-.44,2.28,2.28,0,0,0-1.29.35,3.17,3.17,0,0,0-1,1.12l-2,3.48-.89-.53,3.9-6.61.85.5-1.07,1.81.07-.42a2.81,2.81,0,0,1,1.67-.53A3.77,3.77,0,0,1,572.24,260.91Z" transform="translate(-119.83 -0.68)"/><path class="cls-6" d="M573.44,270.62l5.51-9.35.9.53-2.77,4.68-.91,1.27-.7,1.38-1.17,2Zm3.38,2.07a3.64,3.64,0,0,1-1.33-1.31,3.32,3.32,0,0,1-.41-1.8,4.41,4.41,0,0,1,.67-2.07,4.34,4.34,0,0,1,1.49-1.59,3.29,3.29,0,0,1,1.77-.49,3.63,3.63,0,0,1,1.78.52,4.11,4.11,0,0,1,1.45,1.42,3.61,3.61,0,0,1,.48,1.88,4,4,0,0,1-.61,2,4.08,4.08,0,0,1-1.46,1.51,3.6,3.6,0,0,1-1.88.49A3.92,3.92,0,0,1,576.82,272.69Zm.4-.83a2.84,2.84,0,0,0,1.45.42,2.68,2.68,0,0,0,1.42-.38,3.31,3.31,0,0,0,1.13-1.16,3.27,3.27,0,0,0,.47-1.56,2.77,2.77,0,0,0-.35-1.42,2.87,2.87,0,0,0-1.07-1.06,2.94,2.94,0,0,0-1.46-.43,2.72,2.72,0,0,0-1.41.38,3.16,3.16,0,0,0-1.12,1.17,3.33,3.33,0,0,0-.48,1.55,2.68,2.68,0,0,0,.35,1.42A2.89,2.89,0,0,0,577.22,271.86Z" transform="translate(-119.83 -0.68)"/><path class="cls-6" d="M583.81,276.81a3.53,3.53,0,0,1-1.14-1,2.2,2.2,0,0,1-.44-1.18,2.18,2.18,0,0,1,1.1-2,2,2,0,0,1,1.21-.21,4.29,4.29,0,0,1,1.65.63l2.28,1.35-.39.66-2.26-1.33a2.32,2.32,0,0,0-1.53-.44,1.35,1.35,0,0,0-1,1.79,2.3,2.3,0,0,0,1,1.07,2.68,2.68,0,0,0,1.5.42,2.23,2.23,0,0,0,1.39-.53l-.16.74a2.44,2.44,0,0,1-1.49.53A3.36,3.36,0,0,1,583.81,276.81Zm2.32,1.28.86-1.46.1-.26,1.44-2.44a2,2,0,0,0,.3-1.58,2.33,2.33,0,0,0-1.14-1.28,4,4,0,0,0-1.35-.5,3.68,3.68,0,0,0-1.32,0v-.9a4.14,4.14,0,0,1,1.6.05,5.64,5.64,0,0,1,1.63.64,3.37,3.37,0,0,1,1.61,1.81,2.89,2.89,0,0,1-.44,2.34L587,278.6Z" transform="translate(-119.83 -0.68)"/><path class="cls-6" d="M596.73,275.35a3.48,3.48,0,0,1,1.23,1.14,2.61,2.61,0,0,1,.41,1.5,3.85,3.85,0,0,1-.59,1.79l-2.27,3.85-.89-.53,2.21-3.75a2.53,2.53,0,0,0,.41-1.89,2.25,2.25,0,0,0-1.15-1.4,2.86,2.86,0,0,0-1.4-.44,2.2,2.2,0,0,0-1.29.34,3.33,3.33,0,0,0-1,1.12l-2.05,3.48-.89-.53,3.89-6.61.86.5-1.07,1.82.06-.42a2.79,2.79,0,0,1,1.68-.54A3.69,3.69,0,0,1,596.73,275.35Z" transform="translate(-119.83 -0.68)"/><path class="cls-9" d="M589.18,186.24l.73-1a1.62,1.62,0,0,0,.26-1.15c0-.34-.08-.67-.11-1a1.34,1.34,0,0,1,.91-1.58,6.17,6.17,0,0,1,.75-.3,2,2,0,0,0,1.23-1.27,5.8,5.8,0,0,1,.49-1,1.12,1.12,0,0,1,.82-.51,3.93,3.93,0,0,1,1,0l.59.06a1.88,1.88,0,0,0,1.28-.35l.69-.5a1.45,1.45,0,0,1,2.11.07l.64.48a1.76,1.76,0,0,0,1.33.33l.94-.09a1.33,1.33,0,0,1,1.53.89,7,7,0,0,1,.31.75,2.12,2.12,0,0,0,1.36,1.3,5.86,5.86,0,0,1,.87.43,1.15,1.15,0,0,1,.6,1,7,7,0,0,1-.12,1.2,2,2,0,0,0,.4,1.54l.44.6a1.45,1.45,0,0,1-.08,2.1c-.17.21-.32.43-.48.65a1.78,1.78,0,0,0-.34,1.3c0,.31.08.63.1.94a1.35,1.35,0,0,1-.92,1.56c-.25.11-.49.23-.75.32a2.11,2.11,0,0,0-1.27,1.32,6.18,6.18,0,0,1-.43.9,1.16,1.16,0,0,1-1,.59,8.54,8.54,0,0,1-1.25-.12,1.91,1.91,0,0,0-1.46.38l-.61.45a1.47,1.47,0,0,1-2.13-.07c-.2-.17-.43-.32-.64-.48a1.78,1.78,0,0,0-1.26-.34l-1.13.11a1.28,1.28,0,0,1-1.34-.78c-.14-.3-.27-.6-.38-.9a2,2,0,0,0-1.27-1.23,8.59,8.59,0,0,1-.92-.44,1.18,1.18,0,0,1-.6-1,5.23,5.23,0,0,1,.09-1,2.24,2.24,0,0,0-.5-2,6.49,6.49,0,0,1-.45-.62A1.28,1.28,0,0,1,589.18,186.24Z" transform="translate(-119.83 -0.68)"/><path class="cls-10" d="M593.15,183.85a6.47,6.47,0,1,1,2.27,8.85A6.46,6.46,0,0,1,593.15,183.85Z" transform="translate(-119.83 -0.68)"/><path class="cls-11" d="M596.43,185.12a.51.51,0,0,1,.52-.22.54.54,0,0,1,.49.43c.14.53.29,1.07.42,1.61,0,.2.1.24.31.19l3.34-.85a.63.63,0,0,1,.62.12.57.57,0,0,1-.25,1c-.34.1-.69.17-1,.26l-3,.75c-.52.13-.74,0-.88-.53-.19-.72-.39-1.43-.58-2.14A.67.67,0,0,1,596.43,185.12Z" transform="translate(-119.83 -0.68)"/><rect class="cls-1" x="218.13" y="154.16" width="154.29" height="154.29" rx="23.72" transform="translate(37.07 -118) rotate(30.28)"/><path class="cls-12" d="M325.44,191.67a3.52,3.52,0,0,0-5.4-3.18l-14.48,8.89,2.17-39.85a3.55,3.55,0,0,0-6.26-2.41L225,248.4l98.19-17.93Z" transform="translate(-119.83 -0.68)"/><path class="cls-13" d="M303.55,234.06l2-36.68L225,248.4Z" transform="translate(-119.83 -0.68)"/><path class="cls-14" d="M351.52,219.93a3.39,3.39,0,0,0-4-4.5l-122.5,33,29.21,47.2a10.26,10.26,0,0,0,8.62,5.09l55.7,2.85Z" transform="translate(-119.83 -0.68)"/><rect class="cls-1" x="495.23" y="317.97" width="153.44" height="153.44" rx="23.72" transform="translate(157.19 -235.21) rotate(30.28)"/><path class="cls-15" d="M548.21,371.12a15.38,15.38,0,0,0-1.79,4.11,26.13,26.13,0,0,0-.46,3.9,2.18,2.18,0,0,1-.29,1.17,2,2,0,0,1-1.57.81l-3.75.23a2.37,2.37,0,0,1-1.33-.27,2.27,2.27,0,0,1-.93-1.36,15.78,15.78,0,0,1-.34-2.92c0-1,.06-2.05.18-3.32a18.22,18.22,0,0,1-16-1.44c-3.57-2.11-5.82-4.83-6.69-8.12A14.2,14.2,0,0,1,526,347.21c3.92-.7,8,.21,12.41,2.8a37.74,37.74,0,0,1,4.31,3c1.45,1.15,2.87,2.45,4.34,3.84l1.86-3.14c1.92-3.27,2.59-5.95,2-8.07s-2.49-4.14-5.77-6.07a22.42,22.42,0,0,0-4.93-2.15,40,40,0,0,0-5.47-1.25,14.25,14.25,0,0,1-1.82-.32,2.81,2.81,0,0,1-.75-.27c-.6-.35-.64-1-.11-1.86l1.24-2.11a3.24,3.24,0,0,1,1.19-1.33,3.77,3.77,0,0,1,1.72-.2,28.25,28.25,0,0,1,6.51,1.23,29.62,29.62,0,0,1,7.13,3.1c5.07,3,8.09,6.33,9.11,10.06s.08,7.94-2.71,12.67l-8.21,13.94.08,0Zm-21.15-3.65a15.8,15.8,0,0,0,4.84,1.81,11,11,0,0,0,5.67-.37,7.9,7.9,0,0,0,3.07-1.9,18.19,18.19,0,0,0,2.64-3.49l1.06-1.81a42.25,42.25,0,0,0-3.49-3,37.91,37.91,0,0,0-3.85-2.62c-2.86-1.68-5.27-2.35-7.36-2a8.29,8.29,0,0,0-6.12,9.21A6.84,6.84,0,0,0,527.06,367.47Zm31.46,24.81a2.71,2.71,0,0,1-1.36-1.39,4.1,4.1,0,0,1,.09-2.2l9.59-39.16a9.07,9.07,0,0,1,.63-1.94,1.1,1.1,0,0,1,1.66-.48l4.17,2.47c.81.47,1.29.93,1.41,1.4a4.13,4.13,0,0,1-.13,2.18l-9.64,32.7,23.44-24.56a3.56,3.56,0,0,1,1.79-1.2,3.36,3.36,0,0,1,2,.57l3.41,2a2.92,2.92,0,0,1,1.45,1.44,3.36,3.36,0,0,1-.18,2.15l-10.26,32.79,24.36-24.48a4.38,4.38,0,0,1,1.84-1.18,3.25,3.25,0,0,1,1.91.55l4,2.34a1.1,1.1,0,0,1,.43,1.7,5.21,5.21,0,0,1-.49.64,7.68,7.68,0,0,1-.94.9l-29.86,27.2a3.75,3.75,0,0,1-1.89,1.15,3.1,3.1,0,0,1-1.87-.52l-3.66-2.16a3,3,0,0,1-1.45-1.43,3.55,3.55,0,0,1,.2-2.2l9.76-31.64L566,393.77a4,4,0,0,1-1.82,1.24,3.06,3.06,0,0,1-2-.57Zm54.05,33.42a32.52,32.52,0,0,1-6.1-4.64,22.16,22.16,0,0,1-3.88-4.61,3.55,3.55,0,0,1-.61-2,3.32,3.32,0,0,1,.45-1.35l1.29-2.2c.54-.9,1.13-1.13,1.77-.75a2.7,2.7,0,0,1,.69.58c.2.23.48.63.81,1.05a26.57,26.57,0,0,0,3.8,4.27,29.13,29.13,0,0,0,4.76,3.5c2.69,1.59,5.05,2.34,7.06,2.25a5.38,5.38,0,0,0,4.62-2.78,4.91,4.91,0,0,0,.63-3.69,12.3,12.3,0,0,0-3-4.77l-5-5.58c-2.52-2.82-4-5.64-4.23-8.41a12,12,0,0,1,1.55-7.49,11.26,11.26,0,0,1,4-4.1,13,13,0,0,1,5.14-1.72,15.53,15.53,0,0,1,5.75.38,21.62,21.62,0,0,1,5.8,2.43,23.7,23.7,0,0,1,2.75,1.86c.91.7,1.7,1.4,2.49,2.1s1.41,1.41,2,2.12a10.71,10.71,0,0,1,1.33,1.83,4.24,4.24,0,0,1,.64,1.83,2.61,2.61,0,0,1-.45,1.64l-1.19,2c-.53.9-1.15,1.17-1.79.8a5.4,5.4,0,0,1-1.32-1.47,22.36,22.36,0,0,0-7.19-6.5,12.64,12.64,0,0,0-6.37-2.14,4.85,4.85,0,0,0-4.26,2.65,4.74,4.74,0,0,0-.52,3.81,14.64,14.64,0,0,0,3.29,5.13l4.91,5.5c2.48,2.8,3.88,5.48,4.16,8a11.38,11.38,0,0,1-1.59,7.18,13,13,0,0,1-4,4.34,13.44,13.44,0,0,1-5.34,1.95,15.86,15.86,0,0,1-6.15-.38A23.54,23.54,0,0,1,612.57,425.7Z" transform="translate(-119.83 -0.68)"/><path class="cls-16" d="M608.3,451.36c-20.17,2.19-43.81-4.26-61.32-14.58a108.36,108.36,0,0,1-49-61.73c-.61-2,1.55-2.92,2.57-1A147.21,147.21,0,0,0,554,428.37a145.62,145.62,0,0,0,54.23,18.51C611.16,447.19,611.61,451,608.3,451.36Zm9.79-3.28c-.42-3.37-11.18-8.09-16.07-10.22-1.46-.63-1-2,.8-2.14,11.36-1,23.56,8.43,24,11.23s-9.4,15-20.65,16.93c-1.73.31-2.53-.86-1.26-1.85C609.09,458.78,618.54,451.42,618.09,448.08Z" transform="translate(-119.83 -0.68)"/><rect class="cls-1" x="139.32" y="287.2" width="153.44" height="153.44" rx="23.72" transform="translate(93.13 -59.97) rotate(30.28)"/><path class="cls-17" d="M224.94,316.76,213.38,335.7l-31.06-18.31,6.34-10.75A9.71,9.71,0,0,1,202,303.2Z" transform="translate(-119.83 -0.68)"/><path class="cls-18" d="M255.27,330.21l8.81-4.84a2.77,2.77,0,1,0-2.67-4.86l-9.26,5.09a33,33,0,0,0-20.05-11.82l0-10.56a2.78,2.78,0,1,0-5.55,0l0,10.05a33.26,33.26,0,0,0-27.39,14L256.26,361A33.28,33.28,0,0,0,255.27,330.21Z" transform="translate(-119.83 -0.68)"/><circle class="cls-5" cx="102.98" cy="324.48" r="2.77"/><circle class="cls-5" cx="126.87" cy="338.56" r="2.77"/><path class="cls-19" d="M266.15,363.58l-74.06-43.65a9.7,9.7,0,0,1-3.43-13.29l-38,64.5a9.71,9.71,0,0,0,3.44,13.29L236.49,433l33.1-56.14A9.72,9.72,0,0,0,266.15,363.58Z" transform="translate(-119.83 -0.68)"/><path class="cls-17" d="M256.3,380.31l-3.59-2.11L216.27,440l3.59,2.11a9.72,9.72,0,0,0,13.29-3.43l36.44-61.82A9.72,9.72,0,0,1,256.3,380.31Z" transform="translate(-119.83 -0.68)"/><path class="cls-17" d="M210.12,427.33l4.5-48.27a11,11,0,0,0,6.83-18.83l3-5.12a2.77,2.77,0,1,0-4.78-2.82l-3,5.12a11,11,0,0,0-13.16,15.1l-40,27.3a5.74,5.74,0,0,0-2.16,7.05,5.56,5.56,0,0,0,8.17,2.28l25-17a4.75,4.75,0,0,1,7.4,4.36l-2.8,30.11a5.55,5.55,0,0,0,2.7,5.3,5.61,5.61,0,0,0,3.44.73A5.72,5.72,0,0,0,210.12,427.33Zm6.33-64.07a5.55,5.55,0,1,1-7.6,2A5.55,5.55,0,0,1,216.45,363.26Z" transform="translate(-119.83 -0.68)"/><rect class="cls-1" x="279.09" y="369.96" width="153.44" height="153.44" rx="23.72" transform="translate(153.92 -119.14) rotate(30.28)"/><path d="M391.69,414.62,340,389l0,0-.08,0-.16-.06-.06,0-.07,0-.17,0h-.18a1.7,1.7,0,0,0-.39,0h-.07l-.17,0h0l-.14,0-.1,0-.14.05-.05,0-.16.07,0,0-.15.08-.06,0-.14.1h0a2.65,2.65,0,0,0-.29.29s0,0-.05.05l-.1.15h0l-.06.1-29.44,50a11.21,11.21,0,0,0-1.53,6.6,1.1,1.1,0,0,0,0,.18l3.48,21.48a2.45,2.45,0,0,0,.13.81l.22,1.36a2.21,2.21,0,0,0,.15.5,6.7,6.7,0,0,0,3.44,4.25l54.39,27.51a6.8,6.8,0,0,0,8.87-2.6l29.73-50.44a6.74,6.74,0,0,0,.5-5.71,2.69,2.69,0,0,0-.14-.46l-.53-1.24a2.39,2.39,0,0,0-.22-.52l-9-21.22A11.26,11.26,0,0,0,391.69,414.62Zm-2,4a6.79,6.79,0,0,1,3.21,3.41l6.73,15.79L349.19,412.4a6.73,6.73,0,0,1-3.5-4.34h0l-3.32-12.87Zm-51.55-21.84,3.19,12.38.79,3.05-29.06,49.29L310.55,446a6.68,6.68,0,0,1,.91-3.93ZM401.67,444a2.22,2.22,0,0,1,.93,3.16l-29.73,50.44a2.22,2.22,0,0,1-3,.86L315.52,471a2.27,2.27,0,0,1-1.16-1.36h0v-.08a2.24,2.24,0,0,1,.25-1.7l29.73-50.44a2.23,2.23,0,0,1,3-.87Zm-12.23,5.51-10.17-5.26c-1.6-.73-4-.64-5.08,1.18l4.15,2.94L366.11,469.1l-1.37-32.19-11.69-6c-2.21-1.09-3.71.14-4.89,2.14l4.36,2.57-17.8,30.21-3.15-.88c-1.68-.48-2.61.67-3.15,1.58,0,0,7.5,3.92,11,5.65,4,2,5.6-.53,5.6-.53l-3.83-3.48,13.19-22.38s.59,24.37.89,31.62c.15,3.4,1.06,4.59,3.16,5.82a12.7,12.7,0,0,0,6.29,1.57l19.86-33.69a8.67,8.67,0,0,0,1.76.51C387.92,451.94,388.68,450.77,389.44,449.5Z" transform="translate(-119.83 -0.68)"/><rect class="cls-1" x="416.45" y="451.23" width="153.44" height="153.44" rx="23.72" transform="translate(213.63 -177.32) rotate(30.28)"/><path class="cls-20" d="M528.13,506.64l-17.28-3.45,2.46-11.14a8.78,8.78,0,1,1,17.16,3.68Zm-24.83,32.2,17.28,3.46,4.1-18.37-17.29-3.46Zm-5.68,26.52a8.57,8.57,0,0,0,6.74,10.41A8.85,8.85,0,0,0,514.78,569l2-9.36-17.28-3.45Z" transform="translate(-119.83 -0.68)"/><path class="cls-21" d="M491.44,499.36l-17.28-3.46L476.5,485a8.77,8.77,0,0,1,17.15,3.67ZM460.8,558.29a9.22,9.22,0,0,0,4.1,9.44,9,9,0,0,0,2.65,1A8.84,8.84,0,0,0,478,562l2.13-9.57-17.28-3.46Zm26.84-41.56-17.28-3.45-4.1,18.37,17.29,3.45Z" transform="translate(-119.83 -0.68)"/><path class="cls-22" d="M524.33,524,528,506.86l10.7,2.21A8.78,8.78,0,0,1,535,526.23Zm-17.28-3.46,3.67-17.15-19.41-3.83-3.67,17.15Zm-43.94-26.77A8.81,8.81,0,0,0,456.79,510a9.23,9.23,0,0,0,2.65,1l10.7,2.21L473.81,496Z" transform="translate(-119.83 -0.68)"/><path class="cls-23" d="M466.39,531.43l-3.67,17.16L450.46,546a12.92,12.92,0,0,1-2.65-1,8.81,8.81,0,0,1,6.32-16.18Zm70.08,23.16a8.86,8.86,0,0,0-6.75-10.42l-9.14-1.87-3.8,17.37,9.36,2A8.88,8.88,0,0,0,536.47,554.59Zm-52.8-19.7L480,552l19.41,3.83,3.67-17.16Z" transform="translate(-119.83 -0.68)"/><path class="cls-24" d="M524.33,524l3.8-17.38-17.28-3.45-3.8,17.37Z" transform="translate(-119.83 -0.68)"/><path class="cls-25" d="M491.44,499.36l-17.28-3.46-3.8,17.38,17.28,3.45Z" transform="translate(-119.83 -0.68)"/><path class="cls-26" d="M503.3,538.84l-3.8,17.38,17.28,3.45,3.8-17.37Z" transform="translate(-119.83 -0.68)"/><path class="cls-27" d="M466.39,531.43l-3.8,17.37,17.28,3.46,3.8-17.37Z" transform="translate(-119.83 -0.68)"/></svg>