<svg id="Layer_1" data-name="Layer 1" xmlns="http://www.w3.org/2000/svg" xmlns:xlink="http://www.w3.org/1999/xlink" viewBox="0 0 422.7 410.99"><defs><style>.cls-1{fill:#efefee;}.cls-2{fill:#5f6bb2;}.cls-3{fill:url(#linear-gradient);}.cls-4,.cls-5{fill:#fff;}.cls-4,.cls-7{opacity:0.95;}.cls-6{fill:#4db748;}.cls-8{fill:#848484;}.cls-9{fill:#149247;}.cls-10{fill:#3ab556;}.cls-11{fill:#edebea;}.cls-12{fill:#f9a01b;}.cls-13{fill:#f57f20;}.cls-14{fill:#ffcb29;}.cls-15{fill:#252f3e;}.cls-16{fill:#f8991d;}.cls-17{fill:#37474f;}.cls-18{fill:#5bbc6b;}.cls-19{fill:#5881c1;}.cls-20{fill:#fcb316;}.cls-21{fill:#25baa2;}.cls-22{fill:#0bbcd4;}.cls-23{fill:#e81f64;}.cls-24{fill:#378e43;}.cls-25{fill:#05897b;}.cls-26{fill:#be3a26;}.cls-27{fill:#4e342e;}</style><linearGradient id="linear-gradient" x1="264.55" y1="-718.45" x2="263.5" y2="-583.18" gradientTransform="translate(-147.77 719.83)" gradientUnits="userSpaceOnUse"><stop offset="0.04" stop-color="#6d6e71"/><stop offset="0.22" stop-color="#4a5157" stop-opacity="0.9"/><stop offset="0.43" stop-color="#2b373f" stop-opacity="0.81"/><stop offset="0.64" stop-color="#14242e" stop-opacity="0.75"/><stop offset="0.83" stop-color="#071924" stop-opacity="0.71"/><stop offset="1" stop-color="#021520" stop-opacity="0.7"/></linearGradient></defs><rect class="cls-1" x="369.56" y="162.59" width="136.99" height="136.99" rx="23.72" transform="translate(-227.07 -23.85) rotate(-0.24)"/><path class="cls-2" d="M502.21,209.27a65.34,65.34,0,0,1,4.12,29.39,67.69,67.69,0,0,1-7.91,27.12,70.09,70.09,0,0,1-19.78,23A65.67,65.67,0,0,1,458.31,299a9.3,9.3,0,0,1-2.38.47,3.07,3.07,0,0,1-3.38-3.17c.08-4.19.34-8.38.48-12.57a73.72,73.72,0,0,0,.16-10.08,15.21,15.21,0,0,0-3.06-8.36c-.65-.8-.68-1.08.48-1.23a58,58,0,0,0,12.2-2.43c7.91-2.79,13.43-8,16.32-15.85a40.3,40.3,0,0,0,2.1-21.67,21.51,21.51,0,0,0-4.41-9.61,3.09,3.09,0,0,1-.62-3.37c1.81-5.22,1.25-10.44-.24-15.63-.33-1.15-1.26-1.05-2.14-1.06-4.22,0-8,1.64-11.67,3.39-1.67.79-3.24,1.81-4.85,2.73a2.35,2.35,0,0,1-2,0,61.88,61.88,0,0,0-31-1.37,4.46,4.46,0,0,1-3.83-1c-4.23-3.07-8.73-5.58-14-6.58-1.7-.33-2.78-.08-3.41,1.82-1.71,5.1-2.42,10.21-.89,15.46a1.3,1.3,0,0,1-.25,1.44c-6.35,6.45-7.86,14.44-7.3,23.07.43,6.62,1.93,12.87,6.1,18.24,3.27,4.22,7.64,6.81,12.52,8.69a42.7,42.7,0,0,0,9.38,2.42c.36.06.85,0,1.07.46s-.28.71-.5,1a15.31,15.31,0,0,0-3.22,6.44,2.33,2.33,0,0,1-2,2.05c-3.71.94-7.34,1.43-11-.15a14,14,0,0,1-6.69-6.34c-1.69-2.95-3.71-5.62-6.94-7a8.82,8.82,0,0,0-5.23-1,2,2,0,0,0-1.43.8c-.34.57.14,1.11.53,1.52,1.51,1.61,3.37,2.82,4.83,4.51a22.71,22.71,0,0,1,4.16,7.36,15.4,15.4,0,0,0,11.59,10.34,26.64,26.64,0,0,0,9.83.28c1.07-.14,1.31.12,1.28,1-.13,3.31-.18,6.63-.4,9.94s-2.39,4.48-5.56,3.24a65.79,65.79,0,0,1-14.49-7.82A70,70,0,0,1,385.17,277a63.88,63.88,0,0,1-9.4-15c-6.89-15.72-8.13-31.9-3.26-48.43a69.9,69.9,0,0,1,7.91-17.16,67.48,67.48,0,0,1,46.13-30.74,68.65,68.65,0,0,1,75.66,43.63Z" transform="translate(-226.11 -25.68)"/><rect class="cls-3" x="0.43" y="1.4" width="231.66" height="134.93" rx="16.85"/><path class="cls-4" d="M245.44,61.47V47.07h1.25l9.94,12.51H256V47.07h1.5v14.4h-1.25L246.3,49H247V61.47Z" transform="translate(-226.11 -25.68)"/><path class="cls-4" d="M266.44,61.58a6,6,0,0,1-3-.71,5.23,5.23,0,0,1-2-2,5.59,5.59,0,0,1-.72-2.85,5.74,5.74,0,0,1,.69-2.84,5.06,5.06,0,0,1,1.9-1.94,5.58,5.58,0,0,1,5.41,0,4.87,4.87,0,0,1,1.86,1.93,5.94,5.94,0,0,1,.68,2.87,1.7,1.7,0,0,1,0,.22,1.77,1.77,0,0,0,0,.24h-9.4v-1.1h8.62l-.58.44a4.33,4.33,0,0,0-.5-2.09,3.77,3.77,0,0,0-1.37-1.43,3.87,3.87,0,0,0-2-.52,3.91,3.91,0,0,0-2,.52,3.55,3.55,0,0,0-1.38,1.44,4.43,4.43,0,0,0-.5,2.12v.22a4.3,4.3,0,0,0,.55,2.18,3.82,3.82,0,0,0,1.52,1.46,4.65,4.65,0,0,0,2.23.52,4.91,4.91,0,0,0,1.85-.35,3.77,3.77,0,0,0,1.47-1.07l.82,1a4.66,4.66,0,0,1-1.8,1.31A5.94,5.94,0,0,1,266.44,61.58Z" transform="translate(-226.11 -25.68)"/><path class="cls-4" d="M272.59,51.89V50.67h6.69v1.22Zm5.11,9.69a3.18,3.18,0,0,1-2.35-.83,3.11,3.11,0,0,1-.82-2.32V48.29H276V58.35a2.07,2.07,0,0,0,.48,1.46,1.84,1.84,0,0,0,1.39.51,2.37,2.37,0,0,0,1.61-.55l.51,1a2.63,2.63,0,0,1-1,.57A4,4,0,0,1,277.7,61.58Z" transform="translate(-226.11 -25.68)"/><path class="cls-4" d="M292.31,61.6a9.11,9.11,0,0,1-3.08-.53A5.94,5.94,0,0,1,287,59.73l.59-1.18a6.06,6.06,0,0,0,2.05,1.25,7.49,7.49,0,0,0,2.71.5,6,6,0,0,0,2.21-.34,2.6,2.6,0,0,0,1.25-.91,2.18,2.18,0,0,0,.4-1.28,1.93,1.93,0,0,0-.48-1.36,3.35,3.35,0,0,0-1.26-.81,14.19,14.19,0,0,0-1.73-.52l-1.9-.49a7.62,7.62,0,0,1-1.73-.69,3.62,3.62,0,0,1-1.28-1.14,3.25,3.25,0,0,1-.48-1.86,3.61,3.61,0,0,1,.56-2,4.07,4.07,0,0,1,1.74-1.44,7.19,7.19,0,0,1,3-.54,8.61,8.61,0,0,1,2.41.34,7,7,0,0,1,2.06.93l-.52,1.22a6.72,6.72,0,0,0-2-.91,7.57,7.57,0,0,0-2-.29,5.73,5.73,0,0,0-2.14.35,2.78,2.78,0,0,0-1.24.94,2.27,2.27,0,0,0-.4,1.33,1.89,1.89,0,0,0,.48,1.35,3.13,3.13,0,0,0,1.28.81,15.8,15.8,0,0,0,1.74.51c.63.15,1.25.32,1.88.5a8.54,8.54,0,0,1,1.73.68,3.65,3.65,0,0,1,1.27,1.13,3.15,3.15,0,0,1,.49,1.83,3.53,3.53,0,0,1-.58,1.94,3.94,3.94,0,0,1-1.76,1.44A7.17,7.17,0,0,1,292.31,61.6Z" transform="translate(-226.11 -25.68)"/><path class="cls-4" d="M303.73,61.58a5.22,5.22,0,0,1-2.11-.4,3.08,3.08,0,0,1-1.37-1.12,2.82,2.82,0,0,1-.48-1.63,3,3,0,0,1,.41-1.53,2.76,2.76,0,0,1,1.31-1.11,5.81,5.81,0,0,1,2.46-.43h3.73v1.09H304a3.25,3.25,0,0,0-2.17.56,1.81,1.81,0,0,0-.61,1.38,1.79,1.79,0,0,0,.73,1.48,3.22,3.22,0,0,0,2,.55,3.89,3.89,0,0,0,2.13-.56,3.26,3.26,0,0,0,1.31-1.64l.33,1a3.5,3.5,0,0,1-1.43,1.71A4.81,4.81,0,0,1,303.73,61.58Zm3.72-.11V59.09l-.06-.39v-4a2.8,2.8,0,0,0-.77-2.11,3.18,3.18,0,0,0-2.3-.75,5.75,5.75,0,0,0-2,.35,5.24,5.24,0,0,0-1.61.93L300.06,52A5.73,5.73,0,0,1,302,51a7.82,7.82,0,0,1,2.43-.38,4.65,4.65,0,0,1,3.24,1,4.06,4.06,0,0,1,1.14,3.16v6.7Z" transform="translate(-226.11 -25.68)"/><path class="cls-4" d="M312.82,61.47V46.21h1.46V61.47Z" transform="translate(-226.11 -25.68)"/><path class="cls-4" d="M322.94,61.58a6,6,0,0,1-3-.71,5.23,5.23,0,0,1-2-2,5.59,5.59,0,0,1-.72-2.85,5.74,5.74,0,0,1,.69-2.84,5.06,5.06,0,0,1,1.9-1.94,5.58,5.58,0,0,1,5.41,0,4.87,4.87,0,0,1,1.86,1.93,5.94,5.94,0,0,1,.68,2.87c0,.07,0,.14,0,.22a1.77,1.77,0,0,0,0,.24h-9.4v-1.1H327l-.58.44a4.33,4.33,0,0,0-.5-2.09,3.77,3.77,0,0,0-1.37-1.43,3.87,3.87,0,0,0-2-.52,3.91,3.91,0,0,0-2,.52,3.55,3.55,0,0,0-1.38,1.44,4.43,4.43,0,0,0-.5,2.12v.22a4.3,4.3,0,0,0,.55,2.18,3.82,3.82,0,0,0,1.52,1.46,4.65,4.65,0,0,0,2.23.52,4.91,4.91,0,0,0,1.85-.35,3.85,3.85,0,0,0,1.47-1.07l.82,1a4.66,4.66,0,0,1-1.8,1.31A5.94,5.94,0,0,1,322.94,61.58Z" transform="translate(-226.11 -25.68)"/><path class="cls-5" d="M251.8,95.32a10.18,10.18,0,0,1-3.48-.59,6.55,6.55,0,0,1-2.57-1.53l.67-1.32a6.83,6.83,0,0,0,2.32,1.41,8.31,8.31,0,0,0,3.06.57,6.72,6.72,0,0,0,2.5-.39,3.05,3.05,0,0,0,1.43-1,2.51,2.51,0,0,0,.45-1.45,2.14,2.14,0,0,0-.55-1.54,3.88,3.88,0,0,0-1.43-.92,16.35,16.35,0,0,0-2-.59c-.71-.17-1.43-.35-2.14-.55a8.8,8.8,0,0,1-2-.78,3.91,3.91,0,0,1-1.44-1.29,3.65,3.65,0,0,1-.55-2.11,4,4,0,0,1,.64-2.22,4.43,4.43,0,0,1,2-1.63,8.1,8.1,0,0,1,3.4-.62,10.22,10.22,0,0,1,2.73.38,7.87,7.87,0,0,1,2.32,1.06l-.58,1.38a7.71,7.71,0,0,0-2.22-1,8.81,8.81,0,0,0-2.27-.32,6.51,6.51,0,0,0-2.43.39,3.12,3.12,0,0,0-1.4,1.06,2.59,2.59,0,0,0-.46,1.51,2.13,2.13,0,0,0,.55,1.53,3.6,3.6,0,0,0,1.44.91,17.78,17.78,0,0,0,2,.58c.71.17,1.43.36,2.13.56a9.77,9.77,0,0,1,2,.78,3.94,3.94,0,0,1,1.44,1.27,3.55,3.55,0,0,1,.55,2.08,4,4,0,0,1-.65,2.2,4.61,4.61,0,0,1-2,1.63A8.31,8.31,0,0,1,251.8,95.32ZM251.31,98V76.09h1.17V98Z" transform="translate(-226.11 -25.68)"/><path class="cls-5" d="M266.87,95.32a6.65,6.65,0,0,1-3.66-1,6.09,6.09,0,0,1-2.26-2.8,11.35,11.35,0,0,1-.76-4.39,10.23,10.23,0,0,1,.94-4.64,6.49,6.49,0,0,1,2.62-2.83,7.69,7.69,0,0,1,3.89-1,10.08,10.08,0,0,1,2.09.21,5.35,5.35,0,0,1,1.77.68L270.83,81a4.22,4.22,0,0,0-1.44-.6,8.75,8.75,0,0,0-1.73-.17,5.51,5.51,0,0,0-4.2,1.67,7.08,7.08,0,0,0-1.57,5c0,.34,0,.77.05,1.27a7.61,7.61,0,0,0,.27,1.5l-.58-.44a4.42,4.42,0,0,1,1-2.06,4.72,4.72,0,0,1,1.86-1.29,6.51,6.51,0,0,1,2.45-.44,6.44,6.44,0,0,1,2.86.6,4.66,4.66,0,0,1,1.94,1.7,4.86,4.86,0,0,1-2,7A6.41,6.41,0,0,1,266.87,95.32Zm-.07-1.42a4.66,4.66,0,0,0,2.06-.43,3.31,3.31,0,0,0,1.41-1.23,3.44,3.44,0,0,0,.51-1.88,3.23,3.23,0,0,0-1.1-2.56,4.43,4.43,0,0,0-3-1,4.9,4.9,0,0,0-2.19.46A3.7,3.7,0,0,0,263,88.58a3.22,3.22,0,0,0-.54,1.83A3.18,3.18,0,0,0,263,92.1a3.58,3.58,0,0,0,1.46,1.3A5,5,0,0,0,266.8,93.9Z" transform="translate(-226.11 -25.68)"/><path class="cls-5" d="M279.52,95.32a9.71,9.71,0,0,1-3.33-.57,6.6,6.6,0,0,1-2.52-1.52l.82-1.33a5.86,5.86,0,0,0,2.1,1.35,7.71,7.71,0,0,0,2.9.54,4.77,4.77,0,0,0,3.16-.92,3,3,0,0,0,1.08-2.41,3.17,3.17,0,0,0-.5-1.81,3.21,3.21,0,0,0-1.69-1.18,10.44,10.44,0,0,0-3.26-.41h-3.47l.84-8.18h8.92v1.49h-8.24l.86-.81-.72,6.84-.87-.84h3.06a10.73,10.73,0,0,1,3.95.61,4.29,4.29,0,0,1,2.16,1.69,4.75,4.75,0,0,1,.66,2.53,4.86,4.86,0,0,1-.65,2.5,4.48,4.48,0,0,1-2,1.78A7.29,7.29,0,0,1,279.52,95.32Z" transform="translate(-226.11 -25.68)"/><path class="cls-5" d="M287.65,98.58l1-4.3.19,1a1.25,1.25,0,0,1-.9-.35,1.23,1.23,0,0,1-.36-.91,1.21,1.21,0,0,1,1.23-1.26,1.17,1.17,0,0,1,.88.37A1.31,1.31,0,0,1,290,94a2.3,2.3,0,0,1,0,.37,2.45,2.45,0,0,1-.09.42c-.05.16-.11.34-.19.56l-1,3.21Z" transform="translate(-226.11 -25.68)"/><path class="cls-5" d="M297.36,95.32a9.68,9.68,0,0,1-3.34-.57,6.8,6.8,0,0,1-2.53-1.52l.81-1.33a6.19,6.19,0,0,0,2.13,1.35,7.79,7.79,0,0,0,2.93.54,4.8,4.8,0,0,0,3.11-.89,3.17,3.17,0,0,0,0-4.75,5.17,5.17,0,0,0-3.34-.88H296V86l5-6.31.24.65h-9.09V78.88h10.49v1.19l-5,6.31-.81-.54h.63a6.41,6.41,0,0,1,4.39,1.31,4.3,4.3,0,0,1,1.45,3.35,4.68,4.68,0,0,1-.65,2.47,4.34,4.34,0,0,1-2,1.72A7.57,7.57,0,0,1,297.36,95.32Z" transform="translate(-226.11 -25.68)"/><path class="cls-5" d="M305.35,90.9V89.69L314,78.88h1.86l-8.57,10.81-.91-.28h13.11V90.9Zm9.2,4.28V90.9l0-1.49V85.63h1.63v9.55Z" transform="translate(-226.11 -25.68)"/><path class="cls-5" d="M327.52,95.32a5.82,5.82,0,0,1-3.35-1,6.58,6.58,0,0,1-2.31-2.84,12.26,12.26,0,0,1,0-8.92,6.64,6.64,0,0,1,2.31-2.84,6.16,6.16,0,0,1,6.7,0,6.73,6.73,0,0,1,2.32,2.84,12.13,12.13,0,0,1,0,8.92,6.67,6.67,0,0,1-2.32,2.84A5.82,5.82,0,0,1,327.52,95.32Zm0-1.53A4.14,4.14,0,0,0,330,93a5,5,0,0,0,1.68-2.29,11.47,11.47,0,0,0,0-7.38A5,5,0,0,0,330,81.06a4.14,4.14,0,0,0-2.51-.78,4.19,4.19,0,0,0-2.49.78,5,5,0,0,0-1.7,2.28,11.47,11.47,0,0,0,0,7.38A5,5,0,0,0,325,93,4.19,4.19,0,0,0,327.52,93.79Z" transform="translate(-226.11 -25.68)"/><path class="cls-5" d="M337.7,95.3a1.18,1.18,0,0,1-.88-.37,1.26,1.26,0,0,1-.36-.91,1.21,1.21,0,0,1,.36-.91,1.24,1.24,0,0,1,.88-.35A1.21,1.21,0,0,1,338.93,94a1.26,1.26,0,0,1-.36.91A1.16,1.16,0,0,1,337.7,95.3Z" transform="translate(-226.11 -25.68)"/><path class="cls-5" d="M346.52,95.32a9.79,9.79,0,0,1-3.33-.57,6.63,6.63,0,0,1-2.51-1.52l.81-1.33a6,6,0,0,0,2.11,1.35,7.67,7.67,0,0,0,2.9.54,4.78,4.78,0,0,0,3.16-.92,3,3,0,0,0,1.08-2.41,2.91,2.91,0,0,0-2.19-3,10.44,10.44,0,0,0-3.26-.41h-3.47l.84-8.18h8.92v1.49h-8.25l.87-.81-.73,6.84-.86-.84h3.05a10.76,10.76,0,0,1,4,.61,4.34,4.34,0,0,1,2.16,1.69,4.75,4.75,0,0,1,.66,2.53,5,5,0,0,1-.65,2.5,4.54,4.54,0,0,1-2,1.78A7.31,7.31,0,0,1,346.52,95.32Z" transform="translate(-226.11 -25.68)"/><path class="cls-5" d="M359.71,95.32a9.71,9.71,0,0,1-3.33-.57,6.6,6.6,0,0,1-2.52-1.52l.82-1.33a5.86,5.86,0,0,0,2.1,1.35,7.71,7.71,0,0,0,2.9.54,4.77,4.77,0,0,0,3.16-.92,3,3,0,0,0,1.08-2.41,3.17,3.17,0,0,0-.5-1.81,3.21,3.21,0,0,0-1.69-1.18,10.44,10.44,0,0,0-3.26-.41H355l.84-8.18h8.92v1.49h-8.24l.86-.81-.72,6.84-.87-.84h3.06a10.83,10.83,0,0,1,4,.61A4.31,4.31,0,0,1,365,87.86a4.75,4.75,0,0,1,.66,2.53,4.86,4.86,0,0,1-.65,2.5,4.51,4.51,0,0,1-2,1.78A7.34,7.34,0,0,1,359.71,95.32Z" transform="translate(-226.11 -25.68)"/><path class="cls-6" d="M263.71,131.76v-1.41l10-12.52h2.16L266,130.35,264.9,130h15.19v1.73Zm10.66,5v-5l.05-1.73v-4.37h1.89v11.06Z" transform="translate(-226.11 -25.68)"/><path class="cls-6" d="M283.33,136.86a1.38,1.38,0,0,1-1-.43,1.46,1.46,0,0,1-.42-1.06,1.43,1.43,0,1,1,2.86,0,1.46,1.46,0,0,1-.42,1.06A1.39,1.39,0,0,1,283.33,136.86Z" transform="translate(-226.11 -25.68)"/><path class="cls-6" d="M287.24,136.72v-1.37l7.86-7.7a13.19,13.19,0,0,0,1.62-1.84,4.86,4.86,0,0,0,.72-1.5,5,5,0,0,0,.19-1.32,3.21,3.21,0,0,0-1.12-2.6,5.05,5.05,0,0,0-3.3-.94,8,8,0,0,0-3,.51,5.58,5.58,0,0,0-2.2,1.6l-1.37-1.19a7.14,7.14,0,0,1,2.83-2,10.13,10.13,0,0,1,3.86-.7,8.23,8.23,0,0,1,3.32.61,4.82,4.82,0,0,1,2.17,1.76,4.88,4.88,0,0,1,.77,2.73,6.6,6.6,0,0,1-.26,1.81,6.67,6.67,0,0,1-.91,1.87,15.05,15.05,0,0,1-1.93,2.23l-7.21,7.07-.54-.75h11.71v1.72Z" transform="translate(-226.11 -25.68)"/><path class="cls-6" d="M306.89,128a3.94,3.94,0,0,1-2.21-.63,4.05,4.05,0,0,1-1.5-1.8,6.47,6.47,0,0,1-.53-2.7,6.54,6.54,0,0,1,.53-2.7,4.08,4.08,0,0,1,1.5-1.79,3.94,3.94,0,0,1,2.21-.63,4,4,0,0,1,2.25.63,4.25,4.25,0,0,1,1.5,1.78,7,7,0,0,1,0,5.41,4.19,4.19,0,0,1-1.5,1.8A4,4,0,0,1,306.89,128Zm0-1.21a2.56,2.56,0,0,0,2.12-1,5.63,5.63,0,0,0,0-5.75,2.7,2.7,0,0,0-4.26,0,5.69,5.69,0,0,0,0,5.75A2.56,2.56,0,0,0,306.92,126.74Zm-1.46,10,12.9-18.89H320l-12.9,18.89Zm13,.14a3.93,3.93,0,0,1-2.22-.64,4.17,4.17,0,0,1-1.51-1.79,7,7,0,0,1,0-5.4,4.17,4.17,0,0,1,1.51-1.79,4.22,4.22,0,0,1,4.47,0,4.11,4.11,0,0,1,1.48,1.79,7.14,7.14,0,0,1,0,5.4,4.11,4.11,0,0,1-1.48,1.79A3.94,3.94,0,0,1,318.5,136.86Zm0-1.22a2.5,2.5,0,0,0,2.11-1,5.55,5.55,0,0,0,0-5.74,2.67,2.67,0,0,0-4.23,0,5.55,5.55,0,0,0,0,5.74A2.51,2.51,0,0,0,318.5,135.64Z" transform="translate(-226.11 -25.68)"/><path class="cls-6" d="M253.14,117.39a1.2,1.2,0,0,1,.16.15l7.61,7.61a1.63,1.63,0,0,1,.38,1.92,1.65,1.65,0,0,1-2.51.6c-.11-.09-.21-.19-.31-.29q-1.7-1.68-3.38-3.38a1.38,1.38,0,0,1-.17-.25l-.1,0c0,.1,0,.2,0,.3v10.84a1.7,1.7,0,0,1-1.12,1.69,1.66,1.66,0,0,1-2.2-1.56V123.75c-.12.1-.21.16-.27.22-1.18,1.18-2.35,2.36-3.53,3.53a1.65,1.65,0,0,1-2.48-2.18l.24-.25,7.47-7.48Z" transform="translate(-226.11 -25.68)"/><rect class="cls-5" x="241.43" width="181.04" height="136.93" rx="16.85"/><path class="cls-7" d="M522,69h-1.3V56.78h8.41V57.9H522Zm-.14-6.32h6.47v1.12h-6.47Z" transform="translate(-226.11 -25.68)"/><path class="cls-7" d="M535.28,69.13a4.58,4.58,0,0,1-2-.44,3.1,3.1,0,0,1-1.35-1.31,4.38,4.38,0,0,1-.49-2.19V59.85h1.25v5.2a3.09,3.09,0,0,0,.72,2.22,2.76,2.76,0,0,0,2,.74,3.45,3.45,0,0,0,1.68-.39,2.67,2.67,0,0,0,1.08-1.15,4,4,0,0,0,.38-1.81V59.85h1.24V69h-1.19V66.52l.19.46a3.42,3.42,0,0,1-1.35,1.58A4,4,0,0,1,535.28,69.13Z" transform="translate(-226.11 -25.68)"/><path class="cls-7" d="M543.25,69v-13h1.24V69Z" transform="translate(-226.11 -25.68)"/><path class="cls-7" d="M546.52,60.88v-1h5.7v1ZM548.17,69V58.69a2.77,2.77,0,0,1,.72-2A2.74,2.74,0,0,1,551,56a3.85,3.85,0,0,1,1,.14,2,2,0,0,1,.82.44l-.42.93a1.66,1.66,0,0,0-.61-.34A2.27,2.27,0,0,0,551,57a1.6,1.6,0,0,0-1.21.44,1.8,1.8,0,0,0-.42,1.3v1.4l0,.57V69Zm6.36-11.22a.86.86,0,0,1-.65-.27.88.88,0,0,1,0-1.25.88.88,0,0,1,.65-.25.91.91,0,0,1,.64.24.81.81,0,0,1,.27.62.88.88,0,0,1-.26.64A.85.85,0,0,1,554.53,57.82ZM553.9,69V59.85h1.24V69Z" transform="translate(-226.11 -25.68)"/><path class="cls-7" d="M558.62,69v-13h1.25V69Z" transform="translate(-226.11 -25.68)"/><path class="cls-7" d="M567.24,69.13a5.11,5.11,0,0,1-2.52-.6,4.47,4.47,0,0,1-1.7-1.67,4.7,4.7,0,0,1-.61-2.42A4.9,4.9,0,0,1,563,62a4.33,4.33,0,0,1,1.61-1.65,4.43,4.43,0,0,1,2.31-.61,4.5,4.5,0,0,1,2.3.59A4.16,4.16,0,0,1,570.79,62a5,5,0,0,1,.58,2.45,1.09,1.09,0,0,1,0,.18v.2h-8v-.93h7.34l-.49.37a3.61,3.61,0,0,0-.43-1.78,3.14,3.14,0,0,0-1.16-1.21,3.29,3.29,0,0,0-1.7-.44,3.34,3.34,0,0,0-1.7.44A3.05,3.05,0,0,0,564,62.49a3.81,3.81,0,0,0-.42,1.81v.19a3.6,3.6,0,0,0,.46,1.85,3.24,3.24,0,0,0,1.3,1.24,3.9,3.9,0,0,0,1.9.45,4,4,0,0,0,1.56-.3,3.21,3.21,0,0,0,1.25-.91l.7.8a3.76,3.76,0,0,1-1.53,1.12A5.09,5.09,0,0,1,567.24,69.13Z" transform="translate(-226.11 -25.68)"/><path class="cls-7" d="M577.57,69.13a4.62,4.62,0,0,1-2.35-.6,4.2,4.2,0,0,1-1.64-1.65,5.28,5.28,0,0,1,0-4.89,4.17,4.17,0,0,1,1.64-1.64,4.71,4.71,0,0,1,2.35-.59,4.34,4.34,0,0,1,2.17.54,4,4,0,0,1,1.52,1.59,5.23,5.23,0,0,1,.57,2.55,5.38,5.38,0,0,1-.56,2.54,4,4,0,0,1-1.52,1.6A4.23,4.23,0,0,1,577.57,69.13Zm.09-1.1a3.47,3.47,0,0,0,1.76-.45,3.24,3.24,0,0,0,1.23-1.26,3.92,3.92,0,0,0,.44-1.88,3.88,3.88,0,0,0-.44-1.89,3.24,3.24,0,0,0-1.23-1.26,3.56,3.56,0,0,0-1.76-.44,3.45,3.45,0,0,0-1.73.44,3.24,3.24,0,0,0-1.23,1.26,3.78,3.78,0,0,0-.45,1.89,3.82,3.82,0,0,0,.45,1.88,3.24,3.24,0,0,0,1.23,1.26A3.36,3.36,0,0,0,577.66,68Zm3.47,1V66.28l.12-1.86-.17-1.86V56.05h1.24V69Z" transform="translate(-226.11 -25.68)"/><path class="cls-8" d="M498.76,101.25V92h3.78a5.58,5.58,0,0,1,2.61.59,4.3,4.3,0,0,1,1.74,1.64,5,5,0,0,1,0,4.83,4.37,4.37,0,0,1-1.74,1.64,5.58,5.58,0,0,1-2.61.59Zm1-.85h2.75a4.42,4.42,0,0,0,2.14-.49A3.44,3.44,0,0,0,506,98.57a4.06,4.06,0,0,0,0-3.94,3.57,3.57,0,0,0-1.41-1.34,4.53,4.53,0,0,0-2.14-.48h-2.75Z" transform="translate(-226.11 -25.68)"/><path class="cls-8" d="M512.48,101.31a3.88,3.88,0,0,1-1.91-.45,3.4,3.4,0,0,1-1.29-1.26,3.89,3.89,0,0,1,0-3.67,3.35,3.35,0,0,1,1.22-1.26,3.42,3.42,0,0,1,1.74-.45,3.37,3.37,0,0,1,1.75.44,3.14,3.14,0,0,1,1.2,1.25,3.8,3.8,0,0,1,.44,1.85.71.71,0,0,1,0,.14s0,.1,0,.15h-6.06v-.7h5.56l-.37.28a2.7,2.7,0,0,0-.33-1.35,2.36,2.36,0,0,0-.88-.92,2.48,2.48,0,0,0-1.29-.33,2.52,2.52,0,0,0-1.28.33,2.28,2.28,0,0,0-.89.93,2.85,2.85,0,0,0-.32,1.36v.15a2.77,2.77,0,0,0,.35,1.4,2.53,2.53,0,0,0,1,.94,3,3,0,0,0,1.44.34,3.11,3.11,0,0,0,1.19-.23,2.48,2.48,0,0,0,.95-.69l.53.61A3,3,0,0,1,514,101,3.86,3.86,0,0,1,512.48,101.31Z" transform="translate(-226.11 -25.68)"/><path class="cls-8" d="M517.53,101.25V91.4h.94v9.85Z" transform="translate(-226.11 -25.68)"/><path class="cls-8" d="M521.58,92.74a.63.63,0,0,1-.49-.2.65.65,0,0,1-.2-.47.62.62,0,0,1,.2-.47.66.66,0,0,1,.49-.2.67.67,0,0,1,.49.19.61.61,0,0,1,.2.46.7.7,0,0,1-.19.49A.65.65,0,0,1,521.58,92.74Zm-.48,8.51v-7H522v7Z" transform="translate(-226.11 -25.68)"/><path class="cls-8" d="M526.46,101.25l-3.09-7h1l2.84,6.46h-.46l2.88-6.46h.92l-3.1,7Z" transform="translate(-226.11 -25.68)"/><path class="cls-8" d="M534.82,101.31a3.91,3.91,0,0,1-1.91-.45,3.4,3.4,0,0,1-1.29-1.26,3.62,3.62,0,0,1-.46-1.84,3.75,3.75,0,0,1,.44-1.83,3.28,3.28,0,0,1,3-1.71,3.36,3.36,0,0,1,1.74.44,3.14,3.14,0,0,1,1.2,1.25,3.7,3.7,0,0,1,.44,1.85v.14a.76.76,0,0,0,0,.15h-6.06v-.7h5.55l-.37.28a2.81,2.81,0,0,0-.32-1.35,2.43,2.43,0,0,0-.88-.92,2.69,2.69,0,0,0-2.58,0,2.28,2.28,0,0,0-.89.93,2.85,2.85,0,0,0-.32,1.36v.15a2.68,2.68,0,0,0,.36,1.4,2.47,2.47,0,0,0,1,.94,3,3,0,0,0,1.44.34,3.06,3.06,0,0,0,1.18-.23,2.4,2.4,0,0,0,1-.69l.53.61a2.92,2.92,0,0,1-1.16.85A3.79,3.79,0,0,1,534.82,101.31Z" transform="translate(-226.11 -25.68)"/><path class="cls-8" d="M539.88,101.25v-7h.9v1.9l-.1-.33a2.36,2.36,0,0,1,1-1.22,3.23,3.23,0,0,1,1.71-.41v.91h-.21a2.24,2.24,0,0,0-1.73.67,2.65,2.65,0,0,0-.62,1.9v3.56Z" transform="translate(-226.11 -25.68)"/><path class="cls-8" d="M545.25,103.89a2.69,2.69,0,0,1-.94-.16,2.14,2.14,0,0,1-.76-.48l.44-.7a2,2,0,0,0,.58.39,1.67,1.67,0,0,0,.69.14,1.28,1.28,0,0,0,.8-.26,2.48,2.48,0,0,0,.65-.91l.45-1,.11-.15,2.86-6.46h.93l-3.49,7.8a4,4,0,0,1-.64,1.08,2.11,2.11,0,0,1-.77.56A2.42,2.42,0,0,1,545.25,103.89Zm1.86-2.44-3.21-7.17h1l2.84,6.4Z" transform="translate(-226.11 -25.68)"/><path class="cls-8" d="M556.06,101.25V92h.81l4.25,7.24h-.43L564.9,92h.81v9.29h-.94V93.43H565l-3.87,6.64h-.47l-3.9-6.64H557v7.82Z" transform="translate(-226.11 -25.68)"/><path class="cls-8" d="M571.49,101.31a3.93,3.93,0,0,1-1.91-.45,3.3,3.3,0,0,1-1.28-1.26,3.89,3.89,0,0,1,0-3.67,3.28,3.28,0,0,1,1.22-1.26,3.64,3.64,0,0,1,3.49,0,3.28,3.28,0,0,1,1.2,1.25,3.8,3.8,0,0,1,.43,1.85v.14a.76.76,0,0,0,0,.15h-6.06v-.7h5.56l-.37.28a2.7,2.7,0,0,0-.33-1.35,2.43,2.43,0,0,0-.88-.92,2.48,2.48,0,0,0-1.29-.33,2.53,2.53,0,0,0-1.29.33,2.26,2.26,0,0,0-.88.93,2.73,2.73,0,0,0-.32,1.36v.15a2.67,2.67,0,0,0,.35,1.4,2.47,2.47,0,0,0,1,.94,3,3,0,0,0,1.44.34,3.15,3.15,0,0,0,1.19-.23,2.55,2.55,0,0,0,.95-.69l.53.61A3,3,0,0,1,573,101,3.88,3.88,0,0,1,571.49,101.31Z" transform="translate(-226.11 -25.68)"/><path class="cls-8" d="M575.46,95.06v-.78h4.31v.78Zm3.29,6.25a2,2,0,0,1-1.51-.53,2,2,0,0,1-.53-1.5V92.74h.94v6.49a1.3,1.3,0,0,0,.31.94,1.19,1.19,0,0,0,.9.33,1.5,1.5,0,0,0,1-.35l.33.67a1.57,1.57,0,0,1-.67.37A2.72,2.72,0,0,1,578.75,101.31Z" transform="translate(-226.11 -25.68)"/><path class="cls-8" d="M585.49,94.22a3.21,3.21,0,0,1,1.49.32,2.35,2.35,0,0,1,1,1,3.47,3.47,0,0,1,.37,1.67v4h-1v-4a2.26,2.26,0,0,0-.55-1.66,2,2,0,0,0-1.54-.57,2.68,2.68,0,0,0-1.3.3,2.1,2.1,0,0,0-.85.87,3,3,0,0,0-.29,1.36v3.66h-1V91.4h1v4.79l-.19-.36a2.53,2.53,0,0,1,1.06-1.18A3.35,3.35,0,0,1,585.49,94.22Z" transform="translate(-226.11 -25.68)"/><path class="cls-8" d="M593.74,101.31a3.6,3.6,0,0,1-1.81-.45,3.34,3.34,0,0,1-1.26-1.27,3.84,3.84,0,0,1,0-3.68,3.26,3.26,0,0,1,1.26-1.24,3.6,3.6,0,0,1,1.81-.45,3.69,3.69,0,0,1,1.84.45,3.29,3.29,0,0,1,1.26,1.25,3.57,3.57,0,0,1,.46,1.84,3.62,3.62,0,0,1-.46,1.84,3.39,3.39,0,0,1-1.26,1.26A3.74,3.74,0,0,1,593.74,101.31Zm0-.83a2.57,2.57,0,0,0,1.34-.34,2.5,2.5,0,0,0,.93-1,3,3,0,0,0,.33-1.43,2.93,2.93,0,0,0-.33-1.43,2.43,2.43,0,0,0-.93-1,2.75,2.75,0,0,0-2.65,0,2.43,2.43,0,0,0-.93,1,2.83,2.83,0,0,0-.34,1.43,2.91,2.91,0,0,0,.34,1.43,2.48,2.48,0,0,0,2.24,1.29Z" transform="translate(-226.11 -25.68)"/><path class="cls-8" d="M602,101.31a3.55,3.55,0,0,1-1.79-.45A3.24,3.24,0,0,1,599,99.61a4,4,0,0,1,0-3.71,3.21,3.21,0,0,1,1.24-1.24,3.55,3.55,0,0,1,1.79-.44,3.16,3.16,0,0,1,1.63.41,2.92,2.92,0,0,1,1.16,1.2,4.52,4.52,0,0,1,0,3.85,3,3,0,0,1-1.14,1.22A3.21,3.21,0,0,1,602,101.31Zm.06-.83a2.62,2.62,0,0,0,1.34-.34,2.4,2.4,0,0,0,.92-1,2.91,2.91,0,0,0,.34-1.43,2.83,2.83,0,0,0-.34-1.43,2.34,2.34,0,0,0-.92-1,2.62,2.62,0,0,0-1.34-.34,2.54,2.54,0,0,0-1.31.34,2.43,2.43,0,0,0-.93,1,2.83,2.83,0,0,0-.35,1.43,2.91,2.91,0,0,0,.35,1.43,2.5,2.5,0,0,0,.93,1A2.54,2.54,0,0,0,602.06,100.48Zm2.63.77v-2.1l.09-1.4-.13-1.41V91.4h.94v9.85Z" transform="translate(-226.11 -25.68)"/><path class="cls-6" d="M500.24,135.35v-9.09h1v9.09Zm.83-2.26,0-1.17,5.5-5.66h1.11l-4,4.21-.54.58Zm5.7,2.26-3.92-4.52.65-.7,4.41,5.22Z" transform="translate(-226.11 -25.68)"/><path class="cls-6" d="M511.19,135.41a3.22,3.22,0,0,1-1.33-.25,2,2,0,0,1-.86-.7,1.81,1.81,0,0,1-.3-1,2,2,0,0,1,.25-1,1.8,1.8,0,0,1,.84-.7,3.69,3.69,0,0,1,1.55-.27h2.35v.69h-2.33a2.09,2.09,0,0,0-1.37.35,1.17,1.17,0,0,0-.38.87,1.14,1.14,0,0,0,.45.94,2.09,2.09,0,0,0,1.28.35,2.44,2.44,0,0,0,1.34-.36,2,2,0,0,0,.82-1l.21.63a2.15,2.15,0,0,1-.9,1.08A3,3,0,0,1,511.19,135.41Zm2.35-.06v-1.51l0-.24v-2.52a1.79,1.79,0,0,0-.48-1.34,2,2,0,0,0-1.45-.47,3.79,3.79,0,0,0-1.26.22,3.32,3.32,0,0,0-1,.59l-.42-.69a3.76,3.76,0,0,1,1.25-.68,4.81,4.81,0,0,1,1.53-.24,3,3,0,0,1,2.05.65,2.59,2.59,0,0,1,.72,2v4.23Z" transform="translate(-226.11 -25.68)"/><path class="cls-6" d="M520.41,128.47a3.2,3.2,0,0,1,1.46.32,2.29,2.29,0,0,1,1,1,3.37,3.37,0,0,1,.36,1.64v4h-.93v-3.87a2.24,2.24,0,0,0-.53-1.63,2,2,0,0,0-1.52-.55,2.66,2.66,0,0,0-1.26.29,2,2,0,0,0-.83.85,2.72,2.72,0,0,0-.3,1.33v3.58h-.92v-6.82h.89v1.87l-.15-.35a2.54,2.54,0,0,1,1-1.16A3.3,3.3,0,0,1,520.41,128.47Z" transform="translate(-226.11 -25.68)"/><path class="cls-6" d="M525.71,135.35v-9.63h.92v4.83l-.13,1.37.09,1.38v2Zm3.52.06a3.18,3.18,0,0,1-1.61-.4,2.89,2.89,0,0,1-1.13-1.19,3.92,3.92,0,0,1-.42-1.88,3.88,3.88,0,0,1,.42-1.89,2.88,2.88,0,0,1,1.14-1.18,3.19,3.19,0,0,1,1.6-.4,3.45,3.45,0,0,1,1.74.43,3.18,3.18,0,0,1,1.22,1.22,3.66,3.66,0,0,1,.44,1.82,3.7,3.7,0,0,1-.44,1.81A3.18,3.18,0,0,1,531,135,3.36,3.36,0,0,1,529.23,135.41Zm-.07-.81a2.54,2.54,0,0,0,1.3-.33,2.57,2.57,0,0,0,.91-.94,3.05,3.05,0,0,0,0-2.8,2.62,2.62,0,0,0-.91-.93,2.54,2.54,0,0,0-1.3-.33,2.56,2.56,0,0,0-1.3.33,2.46,2.46,0,0,0-.91.93,3.13,3.13,0,0,0,0,2.8,2.42,2.42,0,0,0,.91.94A2.56,2.56,0,0,0,529.16,134.6Z" transform="translate(-226.11 -25.68)"/><path class="cls-6" d="M536.43,135.41a3.22,3.22,0,0,1-1.33-.25,2,2,0,0,1-.86-.7,1.81,1.81,0,0,1-.3-1,1.87,1.87,0,0,1,.25-1,1.83,1.83,0,0,1,.83-.7,3.77,3.77,0,0,1,1.56-.27h2.34v.69H536.6a2.07,2.07,0,0,0-1.37.35,1.17,1.17,0,0,0-.38.87,1.14,1.14,0,0,0,.45.94,2.09,2.09,0,0,0,1.28.35,2.46,2.46,0,0,0,1.34-.36,2.06,2.06,0,0,0,.82-1l.21.63a2.15,2.15,0,0,1-.9,1.08A3,3,0,0,1,536.43,135.41Zm2.35-.06v-1.51l0-.24v-2.52a1.79,1.79,0,0,0-.48-1.34,2,2,0,0,0-1.45-.47,3.79,3.79,0,0,0-1.26.22,3.2,3.2,0,0,0-1,.59l-.42-.69a3.76,3.76,0,0,1,1.25-.68,4.81,4.81,0,0,1,1.53-.24,3,3,0,0,1,2,.65,2.59,2.59,0,0,1,.73,2v4.23Z" transform="translate(-226.11 -25.68)"/><path class="cls-6" d="M545.65,128.47a3.23,3.23,0,0,1,1.46.32,2.29,2.29,0,0,1,1,1,3.49,3.49,0,0,1,.35,1.64v4h-.92v-3.87a2.24,2.24,0,0,0-.54-1.63,2,2,0,0,0-1.51-.55,2.7,2.7,0,0,0-1.27.29,2.12,2.12,0,0,0-.83.85,2.84,2.84,0,0,0-.29,1.33v3.58h-.92v-6.82h.88v1.87l-.14-.35a2.49,2.49,0,0,1,1-1.16A3.27,3.27,0,0,1,545.65,128.47Z" transform="translate(-226.11 -25.68)"/><path class="cls-9" d="M499.71,63.71c0-.36.06-.72.1-1.09a1.46,1.46,0,0,0-.32-1c-.18-.24-.36-.47-.53-.71a1.18,1.18,0,0,1,0-1.62c.14-.19.28-.39.43-.57a1.75,1.75,0,0,0,.37-1.52,5.5,5.5,0,0,1-.07-1,1,1,0,0,1,.39-.76,4.32,4.32,0,0,1,.76-.42l.48-.22a1.6,1.6,0,0,0,.82-.84l.3-.69a1.29,1.29,0,0,1,1.64-.9l.72.08a1.57,1.57,0,0,0,1.16-.34l.68-.5a1.19,1.19,0,0,1,1.57,0c.2.14.4.28.58.43a1.86,1.86,0,0,0,1.62.39,5,5,0,0,1,.86-.07,1,1,0,0,1,.93.53,6.58,6.58,0,0,1,.45,1,1.79,1.79,0,0,0,1,1c.21.08.4.17.6.26a1.28,1.28,0,0,1,.89,1.64c0,.24,0,.47-.08.71a1.59,1.59,0,0,0,.34,1.15c.17.22.34.45.5.68a1.18,1.18,0,0,1,0,1.6,6.13,6.13,0,0,1-.42.58,1.87,1.87,0,0,0-.38,1.59,4.3,4.3,0,0,1,.07.88,1,1,0,0,1-.53.92,6.18,6.18,0,0,1-1,.47,1.75,1.75,0,0,0-.94,1c-.08.21-.18.41-.27.62a1.29,1.29,0,0,1-1.65.9l-.71-.07a1.48,1.48,0,0,0-1.11.31l-.82.59a1.14,1.14,0,0,1-1.38,0,5.86,5.86,0,0,1-.69-.51,1.8,1.8,0,0,0-1.53-.37,5.47,5.47,0,0,1-.9.08,1.05,1.05,0,0,1-.93-.53,4.29,4.29,0,0,1-.37-.78A2,2,0,0,0,501,65.25a4.3,4.3,0,0,1-.62-.27A1.13,1.13,0,0,1,499.71,63.71Z" transform="translate(-226.11 -25.68)"/><path class="cls-10" d="M501.66,60.1a5.75,5.75,0,1,1,5.73,5.74A5.74,5.74,0,0,1,501.66,60.1Z" transform="translate(-226.11 -25.68)"/><path class="cls-11" d="M504.74,59.59a.45.45,0,0,1,.3-.4.49.49,0,0,1,.57.1l1.05,1.05c.12.13.18.14.32,0l2.18-2.15a.52.52,0,0,1,.52-.19.5.5,0,0,1,.24.85c-.21.23-.45.44-.67.67l-2,1.93c-.34.34-.57.33-.91,0L505,60.07A.6.6,0,0,1,504.74,59.59Z" transform="translate(-226.11 -25.68)"/><rect class="cls-1" x="226.72" y="162.2" width="136.99" height="136.99" rx="23.72" transform="translate(-227.07 -24.45) rotate(-0.24)"/><path class="cls-12" d="M300.42,186.78a3.12,3.12,0,0,0-5.56,0l-7.07,13.33-16.3-31.46a3.15,3.15,0,0,0-5.88,1L249.19,275.44l67-58Z" transform="translate(-226.11 -25.68)"/><path class="cls-13" d="M302.79,229.07l-15-29-38.6,75.33Z" transform="translate(-226.11 -25.68)"/><path class="cls-14" d="M333.11,196.64A3,3,0,0,0,328,195l-78.83,80.46,43.62,22.93a9.1,9.1,0,0,0,8.89,0l43.88-22.93Z" transform="translate(-226.11 -25.68)"/><rect class="cls-1" x="512.39" y="162.81" width="136.23" height="136.23" rx="23.72" transform="translate(-227.07 -23.25) rotate(-0.24)"/><path class="cls-15" d="M551.72,223.6a13.47,13.47,0,0,0,.48,4,22.71,22.71,0,0,0,1.41,3.19,2,2,0,0,1,.31,1,1.75,1.75,0,0,1-.84,1.33L550.32,235a2.14,2.14,0,0,1-1.14.39,2,2,0,0,1-1.32-.62,13.13,13.13,0,0,1-1.58-2.08c-.44-.76-.88-1.6-1.36-2.62A16.17,16.17,0,0,1,532,236.15c-3.69,0-6.63-1.06-8.78-3.19a12.6,12.6,0,0,1,.74-17.65c2.68-2.3,6.24-3.46,10.76-3.46a33.09,33.09,0,0,1,4.65.36c1.63.22,3.29.58,5,1V210c0-3.37-.7-5.72-2.06-7.1s-3.78-2-7.16-2a19.81,19.81,0,0,0-4.74.58,33.93,33.93,0,0,0-4.74,1.51,12.17,12.17,0,0,1-1.54.57,2.58,2.58,0,0,1-.7.14c-.61,0-.92-.45-.92-1.38v-2.17a2.81,2.81,0,0,1,.31-1.55,3.34,3.34,0,0,1,1.23-.93,25,25,0,0,1,5.53-2,26.24,26.24,0,0,1,6.85-.84c5.22,0,9,1.19,11.5,3.59s3.65,6,3.65,10.91V223.6Zm-17.83,6.74a14.1,14.1,0,0,0,4.52-.8,9.74,9.74,0,0,0,4.18-2.83,7.13,7.13,0,0,0,1.49-2.84,16.28,16.28,0,0,0,.44-3.86v-1.86a36.68,36.68,0,0,0-4-.76,34.31,34.31,0,0,0-4.13-.26c-2.94,0-5.09.57-6.54,1.77a6.21,6.21,0,0,0-2.15,5.1,6.27,6.27,0,0,0,1.62,4.7A6.07,6.07,0,0,0,533.89,230.34Zm35.26,4.79a2.44,2.44,0,0,1-1.67-.44,3.64,3.64,0,0,1-.92-1.73l-10.32-34.27a8.22,8.22,0,0,1-.4-1.78,1,1,0,0,1,1.06-1.11h4.3a2.4,2.4,0,0,1,1.71.45,3.47,3.47,0,0,1,.88,1.73l7.38,29.35L578,198a3.1,3.1,0,0,1,.84-1.73,2.94,2.94,0,0,1,1.75-.45h3.52a2.61,2.61,0,0,1,1.75.45,2.93,2.93,0,0,1,.84,1.73l6.93,29.7,7.6-29.7a3.81,3.81,0,0,1,.87-1.73,2.86,2.86,0,0,1,1.72-.45h4.08a1,1,0,0,1,1.1,1.11,4.75,4.75,0,0,1-.09.71,5.71,5.71,0,0,1-.31,1.11L598,233a3.35,3.35,0,0,1-.92,1.73,2.75,2.75,0,0,1-1.67.45h-3.77a2.62,2.62,0,0,1-1.76-.45,3.1,3.1,0,0,1-.83-1.77l-6.81-28.6-6.76,28.55a3.5,3.5,0,0,1-.83,1.78,2.7,2.7,0,0,1-1.76.44Zm56.41,1.2a28.93,28.93,0,0,1-6.76-.8,20,20,0,0,1-5-1.77,3.28,3.28,0,0,1-1.36-1.24,3.1,3.1,0,0,1-.26-1.24V229c0-.94.35-1.38,1-1.38a2.47,2.47,0,0,1,.79.13c.26.09.65.27,1.09.45a24.58,24.58,0,0,0,4.83,1.55,26.52,26.52,0,0,0,5.23.53,11.74,11.74,0,0,0,6.41-1.47,4.78,4.78,0,0,0,2.28-4.21,4.34,4.34,0,0,0-1.19-3.1,10.88,10.88,0,0,0-4.43-2.31l-6.37-2a13.37,13.37,0,0,1-7-4.53,10.61,10.61,0,0,1-2.19-6.43,10,10,0,0,1,1.18-4.92,11.5,11.5,0,0,1,3.16-3.64,13.84,13.84,0,0,1,4.57-2.3,19,19,0,0,1,5.53-.75,20.81,20.81,0,0,1,2.94.18c1,.13,1.93.31,2.86.48s1.71.44,2.5.71a9.5,9.5,0,0,1,1.84.8,3.68,3.68,0,0,1,1.32,1.11,2.35,2.35,0,0,1,.4,1.46v2.08c0,.94-.35,1.42-1,1.42a4.45,4.45,0,0,1-1.67-.53,19.94,19.94,0,0,0-8.43-1.73,11.27,11.27,0,0,0-5.84,1.24,4.29,4.29,0,0,0-2.06,3.95,4.22,4.22,0,0,0,1.32,3.15,13.11,13.11,0,0,0,4.83,2.44l6.23,2c3.16,1,5.44,2.44,6.8,4.26a10.11,10.11,0,0,1,2,6.21,11.46,11.46,0,0,1-1.14,5.14,11.82,11.82,0,0,1-3.2,3.9,14.15,14.15,0,0,1-4.88,2.49A20.74,20.74,0,0,1,625.56,236.33Z" transform="translate(-226.11 -25.68)"/><path class="cls-16" d="M633.86,257.88c-14.45,10.77-35.43,16.49-53.48,16.49a96.19,96.19,0,0,1-65.28-25.14c-1.36-1.24-.13-2.93,1.5-1.95a130.6,130.6,0,0,0,65.32,17.51,129.17,129.17,0,0,0,49.83-10.28C634.16,253.4,636.23,256.1,633.86,257.88Zm6-6.92c-1.84-2.4-12.2-1.15-16.9-.58-1.41.18-1.63-1.06-.35-2,8.25-5.86,21.82-4.17,23.4-2.22s-.44,15.7-8.17,22.26c-1.18,1-2.32.48-1.8-.84C637.81,263.2,641.72,253.31,639.87,251Z" transform="translate(-226.11 -25.68)"/><rect class="cls-1" x="226.29" y="299.74" width="136.23" height="136.23" rx="23.72" transform="translate(-227.64 -24.45) rotate(-0.24)"/><path class="cls-17" d="M280,327.77l-.31,19.69h-32V336.38a8.61,8.61,0,0,1,8.62-8.61Z" transform="translate(-226.11 -25.68)"/><path class="cls-18" d="M309.21,324.38l4.56-7.67a2.47,2.47,0,1,0-4.24-2.52l-4.79,8.07a29.29,29.29,0,0,0-20.65,0l-4.79-8.06a2.46,2.46,0,0,0-4.24,2.51l4.56,7.68A29.52,29.52,0,0,0,265,347.47h58.85A29.56,29.56,0,0,0,309.21,324.38Z" transform="translate(-226.11 -25.68)"/><circle class="cls-5" cx="56" cy="309.47" r="2.46"/><circle class="cls-5" cx="80.62" cy="309.47" r="2.46"/><path class="cls-19" d="M332.58,345H256.25a8.62,8.62,0,0,1-8.62-8.62v66.49a8.62,8.62,0,0,0,8.62,8.62H341.2V353.62A8.62,8.62,0,0,0,332.58,345Z" transform="translate(-226.11 -25.68)"/><path class="cls-17" d="M332.58,362.24h-3.69V426h3.69a8.62,8.62,0,0,0,8.62-8.62V353.62A8.62,8.62,0,0,1,332.58,362.24Z" transform="translate(-226.11 -25.68)"/><path class="cls-17" d="M318.47,419l-18.33-38.95a9.79,9.79,0,0,0-3.26-17.48v-5.28a2.47,2.47,0,0,0-4.93,0v5.28a9.8,9.8,0,0,0-3.26,17.48L270.37,419a5.12,5.12,0,0,0,1.53,6.38,4.93,4.93,0,0,0,7.27-1.95l11.44-24.29a4.21,4.21,0,0,1,7.62,0l11.43,24.29a4.92,4.92,0,0,0,4.46,2.83,5,5,0,0,0,3-1A5.09,5.09,0,0,0,318.47,419Zm-24.05-51.86a4.93,4.93,0,1,1-4.93,4.93A4.93,4.93,0,0,1,294.42,367.16Z" transform="translate(-226.11 -25.68)"/><rect class="cls-1" x="370.51" y="300.02" width="136.23" height="136.23" rx="23.72" transform="translate(-227.64 -23.84) rotate(-0.24)"/><path d="M451.61,327.44l-51.13,3.7h-.13l-.14,0h-.06l-.07,0-.14.05-.09,0-.06,0a2.28,2.28,0,0,0-.3.17l-.05,0-.12.1,0,0-.1.09-.06.07-.09.1,0,0a.57.57,0,0,0-.08.13l0,0s-.05.09-.07.13l0,.06-.06.14v0a2,2,0,0,0-.09.35.13.13,0,0,1,0,.06c0,.05,0,.1,0,.16h0a.37.37,0,0,0,0,.11v51.47a10,10,0,0,0,1.81,5.74l.1.13,12.35,14.86a2.06,2.06,0,0,0,.46.56l.78.94a2.05,2.05,0,0,0,.34.32,6,6,0,0,0,4.55,1.7l54-3.49a6,6,0,0,0,5.61-6v-52a6,6,0,0,0-2.19-4.58,1.7,1.7,0,0,0-.31-.29l-1-.72a3,3,0,0,0-.4-.3l-16.48-12.15A10,10,0,0,0,451.61,327.44Zm.29,4a6,6,0,0,1,4,1.16l12.26,9.05-50.05,3.27a6,6,0,0,1-4.64-1.74h0l-8.34-8.34ZM402.62,338l8,8,2,2v50.81L403.7,388a6,6,0,0,1-1.08-3.42Zm69.87,7.44a2,2,0,0,1,2.13,2v52a2,2,0,0,1-1.87,2l-54,3.49a2.06,2.06,0,0,1-1.5-.52h0l0,0,0,0a2,2,0,0,1-.58-1.41v-52a2,2,0,0,1,1.87-2Zm-6.87,9.74-10.15.56c-1.55.16-3.35,1.31-3.35,3.19l4.5.37v21.38l-15.57-24-11.66.66c-2.18.16-2.78,1.78-2.78,3.84h4.5v31.13l-2.81.75a2.37,2.37,0,0,0-1.69,2.62s7.51-.37,11-.63c3.92-.3,4.05-2.93,4.05-2.93l-4.5-.94V368.08s11.43,18.38,14.93,23.78c1.65,2.54,2.88,3,5,3a11.24,11.24,0,0,0,5.52-1.64V358.53a7.79,7.79,0,0,0,1.58-.41C465.56,357.68,465.62,356.45,465.62,355.14Z" transform="translate(-226.11 -25.68)"/><rect class="cls-1" x="512.21" y="300.25" width="136.23" height="136.23" rx="23.72" transform="translate(-227.64 -23.25) rotate(-0.24)"/><path class="cls-20" d="M597.47,336.31l-14.78,5.15-3.14-9.63a7.79,7.79,0,0,1,14.78-4.93ZM593,372.13,607.77,367l-5.15-15.89-14.78,5.15ZM600.6,395a7.6,7.6,0,0,0,9.85,4.93,7.86,7.86,0,0,0,4.93-9.85L612.69,382l-14.78,5.15Z" transform="translate(-226.11 -25.68)"/><path class="cls-21" d="M566.12,347.28l-14.78,5.15L548.2,343A7.79,7.79,0,1,1,563,338.1Zm3.13,58.89a8.18,8.18,0,0,0,7.39,5.37,7.93,7.93,0,0,0,7.39-10.3L581.34,393l-14.77,5.15ZM571,362.28l-14.77,5.15,5.15,15.9,14.77-5.15Z" transform="translate(-226.11 -25.68)"/><path class="cls-22" d="M602.39,351.31l-4.92-14.78,9.18-3.13a7.79,7.79,0,1,1,4.92,14.78Zm-14.78,5.15-4.92-14.78-16.57,5.82L571,362.28Zm-45.67-.67A7.81,7.81,0,0,0,544.4,371a8.18,8.18,0,0,0,2.46-.44l9.18-3.14-4.92-14.78Z" transform="translate(-226.11 -25.68)"/><path class="cls-23" d="M561.42,383.11l4.92,14.77-10.52,3.59a11.75,11.75,0,0,1-2.47.44,7.82,7.82,0,0,1-2.46-15.22Zm64-13.89a7.85,7.85,0,0,0-9.85-4.92L607.77,367l4.92,15,8.06-2.69A7.89,7.89,0,0,0,625.45,369.22ZM576.19,378l4.93,14.77,16.57-5.82-4.93-14.78Z" transform="translate(-226.11 -25.68)"/><path class="cls-24" d="M602.39,351.31l-4.92-15-14.78,5.15,4.92,15Z" transform="translate(-226.11 -25.68)"/><path class="cls-25" d="M566.12,347.28l-14.78,5.15,4.93,15L571,362.28Z" transform="translate(-226.11 -25.68)"/><path class="cls-26" d="M593,372.13l4.92,15L612.69,382l-4.92-15Z" transform="translate(-226.11 -25.68)"/><path class="cls-27" d="M561.42,383.11l4.92,15L581.12,393l-4.93-15Z" transform="translate(-226.11 -25.68)"/></svg>